<?xml version="1.0" encoding="UTF-8"?>
<svg id="_レイヤー_1" data-name="レイヤー 1" xmlns="http://www.w3.org/2000/svg" viewBox="0 0 1621.66 735.74">
  <defs>
    <style>
      .cls-1 {
        fill: #231815;
        stroke-width: 0px;
      }
    </style>
  </defs>
  <path class="cls-1" d="M192.05,8.81c-21.53,16.97-41.56,35.81-59.84,56.23-19.79,22.1-37.88,45.94-53.75,71-15.32,24.2-28.31,49.67-39.44,76.04-11.13,26.37-20.37,53.4-26.96,81.27-3.14,13.27-5.72,26.68-7.7,40.17-1.35,9.15-2.57,18.33-3.53,27.53-1.01,9.7-1.4,18.76.75,28.45.89,4.02,2.76,8.02,4.54,11.65,1.69,3.43,4.3,6.39,6.68,9.34.8.99,1.62,1.92,2.58,2.77,2.76,2.42,5.72,4.81,8.86,6.74,1.09.67,2.22,1.21,3.39,1.72,3.45,1.51,6.93,3.17,10.58,4.19,5.07,1.41,10.51,1.96,15.71,2.41,5.82.51,11.68.12,17.47-.53,8.49-.96,16.98-1.91,25.48-2.75,33.7-3.34,67.5-5.39,101.35-6.56,32.72-1.13,65.46-1.64,98.18-2.75,32.58-1.11,65.16-2.81,97.58-6.35,34.55-3.78,69-9.18,102.62-18.12,7.67-2.04,15.29-4.27,22.85-6.67s13.97-7.02,17.93-13.79,5.36-15.91,3.02-23.12-6.85-14.26-13.79-17.93-15.37-5.49-23.12-3.02c-31.91,10.14-64.77,16.86-97.92,21.34l7.98-1.07c-47.08,6.31-94.6,8.2-142.04,9.49s-96.53,2.14-144.67,5.91c-13.97,1.09-27.92,2.39-41.85,3.88-11.01,1.18-22.21,3.19-33.3,1.81l7.98,1.07c-3.06-.42-6.04-1.11-8.92-2.26l7.17,3.02c-1.8-.77-3.48-1.69-5.06-2.85l6.07,4.69c-1.39-1.08-2.61-2.29-3.69-3.68l4.69,6.07c-.92-1.26-1.67-2.57-2.31-3.99l3.02,7.17c-.8-1.98-1.3-3.99-1.6-6.11l1.07,7.98c-.62-5.41,0-10.85.54-16.25s1.12-10.3,1.81-15.43l-1.07,7.98c4.47-33.18,12.46-65.84,23.69-97.37,3.18-8.93,6.62-17.75,10.31-26.48l-3.02,7.17c13.01-30.72,29.07-60.13,47.94-87.65,5.29-7.71,10.8-15.26,16.51-22.66l-4.69,6.07c18.71-24.17,39.63-46.61,62.57-66.82,6.45-5.68,13.05-11.17,19.8-16.49,2.93-2.72,4.99-5.94,6.2-9.65,1.88-3.58,2.74-7.43,2.58-11.56,0-7.36-3.27-16.15-8.79-21.21S221.25-.34,213.26.02l-7.98,1.07c-5.08,1.43-9.49,4-13.24,7.72h0Z"/>
  <path class="cls-1" d="M307.42,267.54c-1.48,28.78-3.87,57.51-7.19,86.14-.95,8.2-1.97,16.39-3.07,24.56l1.07-7.98c-5.25,39-12.17,77.78-20.76,116.19-8.6,38.4-18.86,76.44-30.76,113.95-6.68,21.06-13.88,41.94-21.58,62.65-1.25,3.99-1.43,7.98-.54,11.96.18,3.99,1.37,7.71,3.56,11.15,1.89,3.5,4.46,6.3,7.73,8.42,2.9,2.65,6.3,4.44,10.2,5.37,7.68,1.75,16.3,1.37,23.12-3.02l6.07-4.69c3.72-3.74,6.29-8.16,7.72-13.24,9.38-25.23,18.02-50.73,25.88-76.47s15.03-51.96,21.37-78.24c6.31-26.16,11.85-52.51,16.6-79,5.18-28.88,9.39-57.94,12.86-87.07,3.2-26.85,5.59-53.8,7.18-80.79.19-3.3.37-6.59.54-9.89.16-4.13-.71-7.98-2.58-11.56-1.21-3.72-3.28-6.94-6.2-9.65-2.72-2.93-5.94-4.99-9.65-6.2-3.58-1.88-7.43-2.74-11.56-2.58-7.76.35-15.81,2.9-21.21,8.79l-4.69,6.07c-2.71,4.68-4.08,9.73-4.1,15.14h0Z"/>
  <path class="cls-1" d="M883.4,99.09c.53-.26,1.06-.51,1.6-.75l-7.17,3.02c2.71-1.12,5.47-1.87,8.37-2.3l-7.98,1.07c3.51-.43,6.97-.37,10.47.1l-7.98-1.07c3.84.6,7.54,1.66,11.14,3.13l-7.17-3.02c4.17,1.79,8,4.07,11.6,6.84l-6.07-4.69c4.92,3.9,9.19,8.45,13.05,13.4l-4.69-6.07c8.21,10.73,14.65,22.81,20.9,34.74,6.47,12.35,12.4,24.98,17.83,37.82l-3.02-7.17c13.85,32.9,24.29,67.21,31.09,102.26,1.93,9.94,3.56,19.94,4.91,29.98l-1.07-7.98c4.52,34.07,5.69,68.56,3.28,102.85-.67,9.49-1.63,18.97-2.88,28.4l1.07-7.98c-3.94,29.01-10.86,57.66-22.18,84.71l3.02-7.17c-7.89,18.67-17.84,36.47-30.2,52.55l4.69-6.07c-10.26,13.22-22.12,25.11-35.34,35.38,2.02-1.56,4.05-3.13,6.07-4.69-12.27,9.43-25.61,17.39-39.85,23.47l7.17-3.02c-12.78,5.38-26.16,9.17-39.9,11.04l7.98-1.07c-12.17,1.58-24.43,1.6-36.59.02l7.98,1.07c-12.41-1.71-24.5-5.03-36.06-9.86l7.17,3.02c-10.93-4.66-21.22-10.61-30.67-17.82l6.07,4.69c-13.66-10.57-25.26-23.43-35.82-37.03l4.69,6.07c-16.94-21.94-30.93-46.02-41.77-71.53l3.02,7.17c-11.22-26.63-18.95-54.64-22.83-83.28l1.07,7.98c-3.55-26.74-3.71-53.86-.15-80.61l-1.07,7.98c3.56-26.15,10.89-51.44,21.11-75.75l-3.02,7.17c13.1-30.93,30.04-60.4,48.4-88.49,4.49-6.88,9.2-13.62,14.22-20.13l-4.69,6.07c8.35-10.75,17.6-20.85,28.35-29.25l-6.07,4.69c6.73-5.18,13.96-9.59,21.8-12.9l-7.17,3.02c6.13-2.52,12.48-4.3,19.03-5.27,6.92-1.03,14.57-8.04,17.93-13.79,3.76-6.43,5.36-15.91,3.02-23.12s-6.85-14.26-13.79-17.93l-7.17-3.02c-5.32-1.43-10.63-1.43-15.95,0-24.96,3.71-47.67,18.47-65.41,35.83-16.82,16.45-30.37,36.31-42.72,56.23-27.24,43.93-52.23,91.01-62.6,142.1-9.9,48.8-8.57,99.07,3.06,147.46,5.78,24.05,14.46,47.31,24.97,69.68,9.53,20.29,21.15,39.61,34.7,57.47,17.54,23.12,36.8,44.47,62.03,59.45,24.5,14.56,52.71,22.6,81.14,23.72,13.19.52,26.5-1,39.45-3.43,10.49-1.97,20.76-5.08,30.63-9.14,12.15-5,23.9-10.46,34.98-17.55s21.73-15.31,31.52-24.2c37.8-34.31,61.95-82.02,74.82-130.9,6.71-25.47,10.49-51.81,12.52-78.05,1.92-24.8,1.97-49.75.21-74.56-3.66-51.67-14.14-102.97-32.23-151.54-9.35-25.11-20.32-49.73-33.17-73.25-6.86-12.55-14.26-24.44-23.42-35.48-10.29-12.4-23.94-21.54-39.19-26.64-2.54-.85-5.14-1.45-7.78-1.86-4.76-.75-9.69-1.59-14.54-1.47-10.64.26-19.54,2.86-29.02,7.45-6.46,3.13-11.94,11.22-13.79,17.93-1.98,7.18-1.08,16.74,3.02,23.12s10.28,12.04,17.93,13.79l7.98,1.07c5.42-.02,10.46-1.38,15.14-4.1h0Z"/>
  <path class="cls-1" d="M1344.14,84.22c.35.86.59,1.71.74,2.63l-1.07-7.98c.09.89.09,1.75,0,2.64l1.07-7.98c-.19,1.28-.55,2.47-1.03,3.66l3.02-7.17c-.88,1.98-2.03,3.77-3.34,5.49l4.69-6.07c-3.2,4.09-7.06,7.64-10.64,11.39s-7.11,7.54-10.58,11.38c-7.04,7.78-13.86,15.75-20.44,23.91-14.53,18.02-28.27,36.7-40.47,56.38-10.93,17.63-20.68,36.01-28.92,55.05-9.11,21.05-17.07,42.46-22.54,64.76-2.46,10.03-4.45,20.18-5.94,30.4-1.84,12.59-3.67,25.44-3.94,38.19-.22,10.25,1.86,20.16,6.65,29.24,1.07,2.02,2.57,3.76,3.96,5.57s2.72,3.73,4.4,5.31c2.47,2.33,5.31,4.38,8.06,6.34.84.6,1.7,1.15,2.6,1.64s1.87.94,2.83,1.35c3.27,1.41,6.54,2.94,9.94,4.04,2.08.67,4.21,1.18,6.35,1.59,7.46,1.41,15.05,2.12,22.6,2.84,24.95,2.4,49.93,4.46,74.93,6.18,25.12,1.73,50.27,3.11,75.43,4.15,25.04,1.03,50.1,1.73,75.16,2.08s50.36.36,75.54.03c6.15-.08,12.29-.19,18.44-.31,7.79-.15,15.67-3.24,21.21-8.79,2.93-2.72,4.99-5.94,6.2-9.65,1.88-3.58,2.74-7.43,2.58-11.56-.35-7.76-2.9-15.81-8.79-21.21s-13.14-8.95-21.21-8.79c-43.26.86-86.54.71-129.8-.45-43.02-1.16-86.01-3.33-128.92-6.5-12.03-.89-24.05-1.86-36.06-2.9s-23.28-1.83-34.84-3.32l7.98,1.07c-4.65-.63-9.28-1.54-13.64-3.32l7.17,3.02c-2.06-.88-4-1.94-5.8-3.28l6.07,4.69c-1.37-1.07-2.59-2.27-3.66-3.64l4.69,6.07c-.96-1.29-1.73-2.65-2.36-4.12l3.02,7.17c-.72-1.83-1.19-3.71-1.48-5.65l1.07,7.98c-.73-5.58-.18-11.27.26-16.85s1.03-11.01,1.76-16.49l-1.07,7.98c3.2-23.74,9.08-47.07,17.2-69.6,2.3-6.37,4.77-12.68,7.41-18.92l-3.02,7.17c11.79-27.86,26.76-54.3,44.01-79.14,4.92-7.09,10.04-14.05,15.31-20.89l-4.69,6.07c7.32-9.46,14.96-18.68,22.88-27.65,4.02-4.54,8.11-9.02,12.27-13.43s8.36-8.27,12.13-12.75c2.66-3.16,5.34-6.42,7.54-9.92s3.59-7.3,4.95-11c.25-.68.46-1.38.6-2.09.62-3.15,1.2-6.61,1.29-9.82s-.61-6.49-1.15-9.56c-.16-.92-.39-1.76-.74-2.63-.93-3.9-2.72-7.3-5.37-10.2-2.12-3.27-4.92-5.84-8.42-7.73-3.44-2.19-7.16-3.38-11.15-3.56-3.99-.89-7.98-.71-11.96.54-7.26,2.35-14.26,6.85-17.93,13.79l-3.02,7.17c-1.43,5.32-1.43,10.63,0,15.95h0Z"/>
  <path class="cls-1" d="M1464.28,319.63c-2.37,39.5-5.33,78.96-8.5,118.4-3.13,38.94-6.21,77.9-9.86,116.8-2.03,21.65-4.34,43.28-7.24,64.84l1.07-7.98c-3.91,28.95-8.89,57.76-15.71,86.17-1.85,7.73-1.04,16.18,3.02,23.12,1.89,3.5,4.46,6.3,7.73,8.42,2.9,2.65,6.3,4.44,10.2,5.37,7.68,1.75,16.3,1.37,23.12-3.02,6.45-4.16,11.95-10.27,13.79-17.93,5.82-24.28,10.32-48.85,13.94-73.55,3.97-27.14,7.12-54.39,9.73-81.69,2.4-25.18,4.44-50.39,6.53-75.59,2.13-25.61,4.23-51.22,6.2-76.83,1.97-25.62,3.81-51.25,5.4-76.89.2-3.21.4-6.41.59-9.62.16-4.13-.71-7.98-2.58-11.56-1.21-3.72-3.28-6.94-6.2-9.65-2.72-2.93-5.94-4.99-9.65-6.2-3.58-1.88-7.43-2.74-11.56-2.58-7.76.35-15.81,2.9-21.21,8.79l-4.69,6.07c-2.71,4.68-4.08,9.73-4.1,15.14h0Z"/>
</svg>