<?xml version="1.0" encoding="UTF-8"?>
<svg id="_レイヤー_1" data-name="レイヤー_1" xmlns="http://www.w3.org/2000/svg" viewBox="0 0 1705.8 853.12">
  <path d="M4.78,30.02c-1.05,54.47-2.1,108.95-3.15,163.42-.52,26.77-1.11,53.54-1.54,80.32-.4,24.84.42,49.34,3.96,73.96,3.79,26.32,12.68,53,28.61,74.52,2.67,4.51,6.25,8.1,10.76,10.76,4.68,2.71,9.73,4.08,15.14,4.1,9.89,0,21.45-5.55,25.9-14.86,2.22-4.65,4.88-9,8-13.1l-4.69,6.07c4.16-5.31,8.95-9.99,14.28-14.12l-6.07,4.69c6.87-5.19,14.38-9.35,22.29-12.71l-7.17,3.02c11.89-4.92,24.39-7.99,37.12-9.76l-7.98,1.07c20.94-2.78,42.25-1.88,63.14.89l-7.98-1.07c25.41,3.49,50.23,10.27,73.89,20.17l-7.17-3.02c20.6,8.74,40.38,19.68,58.19,33.26l-6.07-4.69c10.71,8.28,20.54,17.57,28.9,28.24l-4.69-6.07c7.03,9.15,12.7,19.11,17.2,29.73l-3.02-7.17c6.74,16.33,10.6,33.59,13,51.06l-1.07-7.98c4.72,35.44,6.07,72.45,1.31,107.94l1.07-7.98c-2.52,18.02-6.95,35.67-14,52.46l3.02-7.17c-6.65,15.58-15.29,30.18-25.63,43.6l4.69-6.07c-10.43,13.36-22.43,25.37-35.8,35.8l6.07-4.69c-13.41,10.34-28.02,18.97-43.62,25.59l7.17-3.02c-15.39,6.42-31.5,10.74-48.02,12.97l7.98-1.07c-17.31,2.23-34.8,2.18-52.11-.05l7.98,1.07c-17.71-2.39-34.99-7.04-51.48-13.91l7.17,3.02c-14.2-6.02-27.62-13.62-40-22.81-5.86-4.35-16.41-4.87-23.12-3.02s-14.5,7.3-17.93,13.79c-3.68,6.96-5.52,15.4-3.02,23.12l3.02,7.17c2.67,4.51,6.25,8.1,10.76,10.76,55.63,41.27,133.4,53.56,199.28,32.53,32.12-10.26,61.39-27.75,86.06-50.7,24.92-23.18,43.44-51.68,56.27-83.03,14.15-34.61,17.54-73.31,16.83-110.39-.34-17.58-1.34-35.23-3.51-52.68-2.34-18.7-5.3-37.32-11.72-55.11-7.25-20.1-17.14-37.68-30.86-54.05-11.93-14.23-26.8-26.06-42.12-36.43-30.16-20.44-65.05-35.28-100.45-43.72s-73.09-11.31-109.7-5.89c-16.08,2.38-31.23,7.35-45.98,14.16-13.78,6.37-27.13,15.82-36.92,27.48-5.61,6.67-10.82,13.65-14.59,21.52h51.81c-5.79-7.81-10.53-16.25-14.37-25.18l3.02,7.17c-5.97-14.27-9.48-29.33-11.56-44.62l1.07,7.98c-4.77-36.54-2.36-73.85-1.65-110.56.81-41.86,1.61-83.73,2.42-125.59.46-23.71.91-47.41,1.37-71.12C65.08,14.33,50.76-.69,34.78.02S5.1,13.2,4.78,30.02h0Z"/>
  <path d="M77.09,122.38c4.56-.67,9.12-1.31,13.69-1.93l-7.98,1.07c36.35-4.88,72.93-7.96,109.58-9.21,36.46-1.24,72.97-.69,109.38,1.67,20.5,1.33,40.96,3.23,61.36,5.7,4.13.16,7.98-.71,11.56-2.58,3.72-1.21,6.94-3.28,9.65-6.2,2.93-2.72,4.99-5.94,6.2-9.65,1.88-3.58,2.74-7.43,2.58-11.56l-1.07-7.98c-1.43-5.08-4-9.49-7.72-13.24l-6.07-4.69c-4.68-2.71-9.73-4.08-15.14-4.1-19.06-2.31-38.18-4.12-57.33-5.43s-38.34-2.12-57.54-2.44c-19.29-.31-38.59-.13-57.88.57-19.19.69-38.36,1.88-57.48,3.57-21.61,1.91-43.14,4.53-64.62,7.55-2.38.33-4.75.68-7.13,1.03-3.9.93-7.3,2.72-10.2,5.37-3.27,2.12-5.84,4.92-7.73,8.42-2.19,3.44-3.38,7.16-3.56,11.15-.89,3.99-.71,7.98.54,11.96l3.02,7.17c2.67,4.51,6.25,8.1,10.76,10.76l7.17,3.02c5.32,1.43,10.63,1.43,15.95,0h0Z"/>
  <path d="M857.48,106.33c22.13,3.05,43.72,9.01,64.33,17.61l-7.17-3.02c20.94,8.84,40.65,20.32,58.67,34.19l-6.07-4.69c17.26,13.42,32.68,28.91,46.06,46.2l-4.69-6.07c16.7,21.79,30,45.9,40.72,71.14l-3.02-7.17c18.87,44.8,30.43,92.86,36.94,140.94l-1.07-7.98c6.21,46.64,6.92,93.96.74,140.64l1.07-7.98c-5.26,38.88-15.36,76.99-30.57,113.17l3.02-7.17c-13.14,30.99-29.95,60.33-50.52,86.99l4.69-6.07c-15.36,19.76-32.74,37.8-52.55,53.13l6.07-4.69c-15.09,11.57-31.4,21.47-48.94,28.89,2.39-1.01,4.78-2.02,7.17-3.02-13.63,5.67-27.83,9.73-42.47,11.74l7.98-1.07c-12.6,1.63-25.26,1.68-37.86.08l7.98,1.07c-14.64-1.99-28.82-6.11-42.45-11.76l7.17,3.02c-20.39-8.61-39.18-20.43-56.71-33.88l6.07,4.69c-23.96-18.53-45.46-40.04-64-63.98l4.69,6.07c-19.49-25.36-35.28-53.23-47.78-82.65l3.02,7.17c-17.08-40.57-28.48-83.77-34.43-127.36l1.07,7.98c-4.21-31.62-5.08-63.66-.89-95.32l-1.07,7.98c3.55-25.82,10.36-51.02,18.5-75.74,7.19-21.84,14.97-43.57,23.88-64.77l-3.02,7.17c9.78-23.16,21.27-45.78,36.69-65.74l-4.69,6.07c8.16-10.44,17.36-19.99,27.83-28.13l-6.07,4.69c7.45-5.69,15.41-10.58,23.89-14.57,6.45-3.04,11.96-11.3,13.79-17.93,1.98-7.18,1.08-16.74-3.02-23.12s-10.28-12.04-17.93-13.79c-8.26-1.88-15.46-.58-23.12,3.02-54.36,25.58-84.23,81.46-105.61,134.66-24.7,61.48-44.54,125.89-42.69,192.82.99,35.68,6.73,71.42,15.33,106.03,8.11,32.67,19.41,64.49,33.8,94.94,27.88,58.98,70.84,109.59,123.64,147.72,25.83,18.65,55.61,34.1,86.97,40.66s65.5,4.99,96.56-5.74c60.74-20.98,108.51-66.48,144.01-118.86s57.29-110.47,67.75-170.94c12.24-70.76,9.53-142.51-4.54-212.81-6.07-30.32-14.15-60.37-25.24-89.26-11.51-29.99-25.5-59.15-44.44-85.21-9.84-13.54-20.43-26.57-32.36-38.32-11.6-11.42-24.37-21.7-37.64-31.11-24.61-17.45-52.52-30.71-81.33-39.56-13.14-4.04-26.58-6.98-40.2-8.86-3.99-1.25-7.98-1.43-11.96-.54-3.99.18-7.71,1.37-11.15,3.56-6.22,3.64-12.16,10.78-13.79,17.93-1.75,7.68-1.37,16.3,3.02,23.12,3.91,6.06,10.43,12.75,17.93,13.79h0Z"/>
  <path d="M1295.28,151.19c.02-4.04.28-8.06.78-12.07l-1.07,7.98c1.2-8.9,3.59-17.53,7.03-25.82l-3.02,7.17c3.93-9.23,9.07-17.83,15.18-25.79l-4.69,6.07c6.92-8.85,14.92-16.74,23.77-23.65l-6.07,4.69c9.81-7.54,20.51-13.78,31.9-18.61l-7.17,3.02c11.56-4.79,23.58-7.88,35.96-9.61l-7.98,1.07c16.13-2.13,32.4-1.92,48.53.15l-7.98-1.07c22.63,3.04,44.57,9.62,65.59,18.44l-7.17-3.02c21.81,9.26,43.28,20.54,62.13,34.99l-6.07-4.69c9.15,7.12,17.53,15.09,24.65,24.26l-4.69-6.07c6.19,8.15,11.25,17.02,15.29,26.43l-3.02-7.17c5.2,12.42,8.54,25.46,10.34,38.79l-1.07-7.98c2.21,17.26,1.73,34.65-.53,51.88l1.07-7.98c-3.14,23-9.3,45.41-16.48,67.45-7,21.47-14.98,42.62-23.76,63.43l3.02-7.17c-24.78,58.55-55.59,114.84-90.82,167.74-9.72,14.59-19.89,28.87-30.58,42.76l4.69-6.07c-27.78,35.91-59.29,68.18-95.2,95.99l6.07-4.69c-38.85,29.98-80.55,56.39-116.85,89.6-5.29,4.84-9.11,14.07-8.79,21.21.3,6.77,2.28,12.79,6.44,18.18,9.33,12.08,25.3,14.76,38.7,7.73,3.73-1.96,7.53-3.76,11.41-5.43l-7.17,3.02c18.35-7.7,37.84-11.87,57.5-14.56l-7.98,1.07c22.91-3.05,46.05-4.56,69.11-6.03,24.02-1.53,48.07-2.63,72.13-3.4,48.38-1.56,96.78-1.82,145.18-1.61,27.39.12,54.78.39,82.17.66,7.64.08,15.83-3.4,21.21-8.79s9.12-13.74,8.79-21.21c-.73-16.39-13.18-29.83-30-30-59.26-.59-118.54-1.18-177.8-.23-58.53.93-117.32,2.86-175.58,8.82-34.52,3.53-68.23,9.57-99.26,25.86,12.12,15.71,24.24,31.41,36.35,47.12,10.39-9.51,21.26-18.45,32.39-27.08l-6.07,4.69c33.14-25.58,68.22-48.56,100.46-75.32,29.57-24.55,55.69-52.85,79.2-83.2,25-32.27,47.42-66.23,68-101.47s38.95-70.79,54.99-107.84c16.97-39.18,32.82-79.62,42.08-121.41,4.89-22.09,8.11-45.09,7.23-67.76-.79-20.47-4.17-41.5-11.86-60.57-8.52-21.12-20.07-40.2-36.72-56-14.9-14.14-32.33-25.68-50.34-35.45-38.05-20.65-79.47-35.13-122.86-38.11-38.72-2.66-79.18,6.13-111.6,28-31,20.91-56.72,51.8-65.48,88.8-2.3,9.7-3.58,19.87-3.64,29.84-.04,7.67,3.38,15.8,8.79,21.21s13.74,9.12,21.21,8.79c16.33-.73,29.91-13.18,30-30h0Z"/>
</svg>