<?xml version="1.0" encoding="UTF-8"?>
<svg id="_レイヤー_1" data-name="レイヤー_1" xmlns="http://www.w3.org/2000/svg" viewBox="0 0 1878.72 911.26">
  <path d="M0,98.38c1.77,79.44,10.47,158.82,25.63,236.83,4.15,21.33,8.82,42.56,13.97,63.67,2.46,10.07,11.1,18.24,20.95,20.95,10.67,2.94,21.22-.39,29.19-7.72,3.78-3.47,7.69-6.79,11.74-9.95l-6.07,4.69c13.89-10.71,29.15-19.39,45.27-26.29l-7.17,3.02c21.46-9.03,44.09-14.83,67.13-18.01l-7.98,1.07c26.03-3.48,52.36-3.46,78.39.03l-7.98-1.07c24.83,3.43,49.16,9.96,72.27,19.7l-7.17-3.02c19.65,8.38,38.25,19.04,55.17,32.09l-6.07-4.69c14.4,11.22,27.41,24.07,38.61,38.5l-4.69-6.07c11.17,14.55,20.23,30.49,27.42,47.35l-3.02-7.17c9.61,22.91,15.71,47.1,19.06,71.7l-1.07-7.98c3.61,27.27,3.44,54.91-.22,82.16l1.07-7.98c-3.76,27.24-10.98,53.91-21.6,79.29l3.02-7.17c-9.74,23.04-22.22,44.83-37.46,64.68l4.69-6.07c-13.41,17.31-28.81,32.97-46.1,46.42l6.07-4.69c-17.57,13.54-36.85,24.47-57.25,33.14l7.17-3.02c-33.08,13.88-68.25,21.77-103.72,26.54l7.98-1.07c-18.26,2.42-36.75,4.18-55.11,1.79l7.98,1.07c-8.04-1.14-15.87-3.1-23.38-6.22l7.17,3.02c-3.54-1.54-6.94-3.31-10.22-5.33-13.38-8.24-33.6-3.34-41.05,10.76s-3.52,32.25,10.76,41.05c40.69,25.05,92.27,16.94,136.67,8.91,43.13-7.8,86.27-21.71,123.6-45.08,63.59-39.81,108.06-104.74,128.9-176.22,22.51-77.22,17.89-164.36-18.5-236.64-34.58-68.68-103.3-114.86-176.97-132.39-36-8.56-73.81-11.33-110.57-6.82-43.03,5.28-85.9,17.41-122.08,42.12-9.5,6.48-18.64,13.64-27.11,21.42,16.71,4.41,33.43,8.83,50.14,13.24-11.4-46.65-20.32-93.87-26.75-141.45l1.07,7.98c-6.71-50.1-10.65-100.54-11.78-151.07-.17-7.8-3.23-15.65-8.79-21.21-5.2-5.2-13.74-9.12-21.21-8.79C14.05,69.1-.37,81.57,0,98.38H0Z"/>
  <path d="M62.64,92.77c23.21,1.51,46.49,1.39,69.72.47s46.53-2.63,69.77-4.25c23.23-1.62,46.48-3.15,69.76-3.73s46.45-.01,69.62,2.01c11.5,1,23,2.16,34.54,2.69,12.86.59,25.52.07,38.28-1.65,4.06-.55,8.11-1.1,12.13-1.9,3.9-.93,7.3-2.72,10.2-5.37,3.27-2.12,5.84-4.92,7.73-8.42,2.19-3.44,3.38-7.16,3.56-11.15.89-3.99.71-7.98-.54-11.96-2.35-7.26-6.85-14.26-13.79-17.93l-7.17-3.02c-5.32-1.43-10.63-1.43-15.95,0-2.7.53-5.41.98-8.14,1.36l7.98-1.07c-22.43,2.97-45.04.52-67.45-1.46s-45.2-2.67-67.88-2.2c-45.44.95-90.68,5.69-136.06,7.77-25.42,1.16-50.9,1.47-76.31-.19-4.13-.16-7.98.71-11.56,2.58-3.72,1.21-6.94,3.28-9.65,6.2-2.93,2.72-4.99,5.94-6.2,9.65-1.88,3.58-2.74,7.43-2.58,11.56.35,7.76,2.9,15.81,8.79,21.21l6.07,4.69c4.68,2.71,9.73,4.08,15.14,4.1h0Z"/>
  <path d="M998.51,115.93c15.51,3.77,30.67,8.78,45.38,14.97l-7.17-3.02c24.25,10.31,47.06,23.71,67.93,39.8l-6.07-4.69c20.17,15.68,38.35,33.77,54.03,53.94l-4.69-6.07c16.11,20.88,29.19,43.78,39.5,68.04l-3.02-7.17c14.03,33.4,22.74,68.74,27.65,104.59l-1.07-7.98c6.23,46.54,6.05,93.75-.16,140.28l1.07-7.98c-6.51,47.94-19.34,94.88-38.06,139.49l3.02-7.17c-17.99,42.59-41.29,82.82-69.53,119.43l4.69-6.07c-18.95,24.44-39.84,47.75-64.32,66.8l6.07-4.69c-12.98,9.99-26.91,18.64-41.98,25.11l7.17-3.02c-11.93,5.02-24.33,8.53-37.15,10.36l7.98-1.07c-14.34,1.91-28.78,1.73-43.11-.13l7.98,1.07c-18.56-2.55-36.57-7.83-53.84-15.05l7.17,3.02c-21.96-9.33-42.54-21.69-61.45-36.22l6.07,4.69c-19.59-15.19-37.2-32.74-52.41-52.3l4.69,6.07c-17.2-22.34-31.06-46.99-42.03-72.93l3.02,7.17c-13.97-33.39-23.26-68.6-28.1-104.45l1.07,7.98c-5.15-39.02-4.99-78.58.2-117.58l-1.07,7.98c5.42-39.89,16.05-78.95,31.69-116.05l-3.02,7.17c15.57-36.64,36.12-70.62,60.43-102.11l-4.69,6.07c17.08-22,35.68-42.76,55.08-62.72,18.59-19.13,37.41-38.87,58.53-55.24l-6.07,4.69c8.43-6.44,17.35-12.14,27.1-16.36l-7.17,3.02c6.59-2.75,13.4-4.73,20.47-5.78l-7.98,1.07,1.26-.16c8.27-1.08,15.06-2.64,21.21-8.79,5.2-5.2,9.12-13.74,8.79-21.21s-2.9-15.81-8.79-21.21c-5.42-4.98-13.54-9.78-21.21-8.79-11.95,1.55-22.22,3.85-33.29,8.53-8.45,3.56-16.4,7.72-23.95,12.95-15.54,10.75-29.42,23.48-42.96,36.59-25.72,24.92-50.73,50.65-73.42,78.38-23.32,28.49-44.61,58.61-61.44,91.42s-29.09,64.89-37.97,99.15c-17.76,68.55-20.16,140.43-6.96,209.98s44.84,140.09,95.46,192.19c24.71,25.43,54.21,47.41,86.12,62.96,34.92,17.02,73.96,28.4,113.15,26.07,37.42-2.23,72.72-15.98,102.66-38.38,28.09-21,51.96-46.13,73.41-73.79,42.55-54.86,74.93-116.47,95.56-182.84,19.83-63.84,28.64-132,24.74-198.77-4.26-72.98-21.8-148.05-62.78-209.58-18.09-27.16-39.98-51.94-65.32-72.53-13.59-11.05-27.77-21.39-42.83-30.35s-30.99-16.36-47.27-23.01c-13.66-5.58-27.73-10.11-42.07-13.59-7.71-1.87-16.2-1.03-23.12,3.02-6.22,3.64-12.16,10.78-13.79,17.93-3.52,15.45,4.64,32.94,20.95,36.9h0Z"/>
  <path d="M1548.43,68.36c11.82-3.55,23.85-6.19,36.08-7.85l-7.98,1.07c17.59-2.26,35.34-2.43,52.94-.12l-7.98-1.07c14.68,2.05,29.03,5.78,42.72,11.48l-7.17-3.02c12.44,5.28,24.13,12.05,34.88,20.24l-6.07-4.69c9.99,7.74,18.97,16.6,26.71,26.6l-4.69-6.07c6.79,8.94,12.43,18.58,16.82,28.91l-3.02-7.17c5.14,12.48,8.39,25.54,10.2,38.91l-1.07-7.98c2.35,18.54,2.02,37.3-.43,55.81l1.07-7.98c-2.88,20.89-8.52,41.25-16.65,60.7l3.02-7.17c-8.24,19.43-18.88,37.72-31.71,54.47l4.69-6.07c-12.51,16.16-26.95,30.64-43.08,43.18l6.07-4.69c-17.17,13.2-35.95,24.09-55.88,32.58l7.17-3.02c-21.22,8.91-43.47,15.02-66.27,18.18l7.98-1.07c-12.71,1.69-25.5,2.47-38.33,2.29,2.66,19.64,5.32,39.29,7.98,58.93,15.37-3.85,30.92-6.8,46.62-8.93l-7.98,1.07c45.09-5.95,90.84-5.04,135.88.93l-7.98-1.07c25.19,3.41,50.22,8.67,73.75,18.52l-7.17-3.02c12.84,5.49,24.98,12.29,36.11,20.75l-6.07-4.69c9.17,7.09,17.47,15.15,24.61,24.29l-4.69-6.07c5.75,7.52,10.59,15.6,14.34,24.3-1.01-2.39-2.02-4.78-3.02-7.17,4.03,9.65,6.56,19.75,7.97,30.1l-1.07-7.98c2.13,16.98,1.26,34.08-.93,51.01l1.07-7.98c-4.18,31.07-13.09,61.23-25.19,90.11l3.02-7.17c-12.85,30.35-29,59.3-49.14,85.43l4.69-6.07c-14.71,18.92-31.46,36.18-50.41,50.89l6.07-4.69c-15.52,11.92-32.29,21.97-50.32,29.6l7.17-3.02c-17.11,7.12-35,12.05-53.37,14.56l7.98-1.07c-16.47,2.13-33.1,2.27-49.57.1l7.98,1.07c-14.23-1.99-28.11-5.68-41.38-11.23l7.17,3.02c-1.61-.69-3.21-1.4-4.8-2.13-7.52-3.45-14.84-5.3-23.12-3.02-6.96,1.92-14.5,7.3-17.93,13.79-3.68,6.96-5.52,15.4-3.02,23.12,2.27,7.01,6.81,14.73,13.79,17.93,30.68,14.07,64.01,20.85,97.82,18.65,33.84-2.2,66.39-11.43,96.54-26.92,54.76-28.13,97.53-77.43,126.86-130.75,16.15-29.36,29.38-60.92,38.25-93.25,9.78-35.65,14.86-73.19,9.7-109.95-4.61-32.86-21.77-63.19-46.49-85.2-25.84-23-57.41-37.79-90.81-46.19-18.06-4.54-36.52-7.19-54.99-9.44-17.02-2.07-34.13-3.41-51.26-3.92-36.14-1.08-72.39,1.76-107.94,8.41-8.29,1.55-16.52,3.37-24.7,5.41-14.5,3.63-23.41,18.6-21.49,32.92,1.98,14.74,14.41,25.8,29.46,26.01,50.93.71,102.16-12.57,146.44-37.73,43.51-24.73,80.18-61.77,104.11-105.75,11.86-21.79,21.17-45.45,26.64-69.67,5.6-24.76,8.22-50.8,6.01-76.15-2.49-28.63-9.74-56.96-25.34-81.41-14-21.94-32.77-40.15-54.61-54.21-47.35-30.49-106.49-35.82-160.64-24.19-6.26,1.35-12.46,2.97-18.59,4.82-7.34,2.2-14.03,7.12-17.93,13.79s-5.36,15.91-3.02,23.12c4.91,15.17,20.81,25.79,36.9,20.95h0Z"/>
</svg>