<?xml version="1.0" encoding="UTF-8"?>
<svg xmlns="http://www.w3.org/2000/svg" viewBox="0 0 250 250">
  <defs>
    <style>
      .cls-1 {
        fill: #fff;
        stroke: #231815;
        stroke-linecap: round;
        stroke-miterlimit: 10;
        stroke-width: 9px;
      }

      .cls-2 {
        fill: none;
      }

      .cls-2, .cls-3 {
        stroke-width: 0px;
      }

      .cls-3 {
        fill: #231815;
      }
    </style>
  </defs>
  <g id="_レイヤー_3" data-name="レイヤー 3">
    <rect class="cls-2" width="250" height="250"/>
  </g>
  <g id="_レイヤー_1" data-name="レイヤー 1">
    <path class="cls-1" d="M32.38,228.66s46.4-7.03,102.51-36.02,85.13-27.06,85.13-27.06"/>
    <path class="cls-1" d="M32.54,182.23s46.4-7.03,102.51-36.02c56.11-28.99,85.13-27.06,85.13-27.06"/>
    <path class="cls-1" d="M32.38,135.12s46.4-7.03,102.51-36.02,85.13-27.06,85.13-27.06"/>
  </g>
  <g id="_レイヤー_2" data-name="レイヤー 2">
    <ellipse class="cls-3" cx="89.9" cy="188.81" rx="35.22" ry="24.01"/>
    <path class="cls-3" d="M121.02,190.06c-2.11,0-3.85-1.67-3.92-3.78-.58-17.23-2.79-88.39-.23-111.45,4.47-40.29,9.25-56.3,11.73-62.29.8-1.94,2.98-2.9,4.96-2.18,10.47,3.78,43.02,16.85,49.44,35.08,5,14.18-15.97,47.14-16.64,48.62-.8,1.8-10.72-36.11-18.85-47.37-8.85-12.27-19.53-6.45-22.4,23.84-3.31,34.93-.9,98.76-.18,115.45.1,2.23-1.69,4.08-3.92,4.08h0Z"/>
  </g>
</svg>