<?xml version="1.0" encoding="UTF-8"?>
<svg xmlns="http://www.w3.org/2000/svg" xmlns:xlink="http://www.w3.org/1999/xlink" viewBox="0 0 859.22 857.19">
  <defs>
    <style>
      .cls-1 {
        fill: #f6babb;
      }

      .cls-2 {
        fill: #231815;
      }

      .cls-2, .cls-3, .cls-4, .cls-5, .cls-6, .cls-7 {
        stroke: #231815;
      }

      .cls-2, .cls-3, .cls-4, .cls-5, .cls-6, .cls-7, .cls-8 {
        stroke-linecap: round;
        stroke-linejoin: round;
      }

      .cls-9 {
        fill: #97cd92;
      }

      .cls-10 {
        fill: url(#_名称未設定グラデーション_786-2);
      }

      .cls-11, .cls-4, .cls-8 {
        fill: #fff;
      }

      .cls-3 {
        fill: none;
      }

      .cls-12 {
        fill: url(#_名称未設定グラデーション_408);
      }

      .cls-13 {
        fill: #fcf0d2;
      }

      .cls-14 {
        fill: url(#_名称未設定グラデーション_391);
      }

      .cls-15 {
        fill: url(#_名称未設定グラデーション_171);
      }

      .cls-5 {
        fill: url(#_名称未設定グラデーション_359-2);
      }

      .cls-16 {
        fill: #e3abcc;
      }

      .cls-17 {
        fill: url(#_名称未設定グラデーション_171-2);
      }

      .cls-6 {
        fill: url(#_名称未設定グラデーション_490);
      }

      .cls-18 {
        fill: url(#_名称未設定グラデーション_197);
      }

      .cls-19 {
        fill: url(#_名称未設定グラデーション_197-2);
      }

      .cls-20 {
        fill: url(#_名称未設定グラデーション_394);
      }

      .cls-21 {
        fill: #94d4f5;
      }

      .cls-22 {
        fill: url(#_名称未設定グラデーション_786);
      }

      .cls-23 {
        fill: url(#_名称未設定グラデーション_766);
      }

      .cls-7 {
        fill: url(#_名称未設定グラデーション_359);
      }

      .cls-24 {
        fill: url(#_名称未設定グラデーション_786-3);
      }

      .cls-8 {
        stroke: #fff;
      }

      .cls-25 {
        fill: url(#_名称未設定グラデーション_771);
      }

      .cls-26 {
        fill: url(#_名称未設定グラデーション_106);
      }
    </style>
    <radialGradient id="_名称未設定グラデーション_394" data-name="名称未設定グラデーション 394" cx="409.62" cy="255.36" fx="547.62" fy="291.62" r="143.98" gradientUnits="userSpaceOnUse">
      <stop offset=".03" stop-color="#f09494"/>
      <stop offset=".03" stop-color="#f09695" stop-opacity=".97"/>
      <stop offset=".13" stop-color="#f5bcaf" stop-opacity=".56"/>
      <stop offset=".21" stop-color="#f8d8c1" stop-opacity=".26"/>
      <stop offset=".26" stop-color="#fbe9cd" stop-opacity=".07"/>
      <stop offset=".29" stop-color="#fcf0d2" stop-opacity="0"/>
    </radialGradient>
    <radialGradient id="_名称未設定グラデーション_391" data-name="名称未設定グラデーション 391" cx="409.91" cy="256.99" fx="292.03" fy="341.93" r="145.29" gradientUnits="userSpaceOnUse">
      <stop offset="0" stop-color="#f09494"/>
      <stop offset=".19" stop-color="#f8d2bd" stop-opacity=".33"/>
      <stop offset=".29" stop-color="#fcf0d2" stop-opacity="0"/>
    </radialGradient>
    <linearGradient id="_名称未設定グラデーション_408" data-name="名称未設定グラデーション 408" x1="405.67" y1="124.14" x2="405.67" y2="354.17" gradientUnits="userSpaceOnUse">
      <stop offset=".12" stop-color="#4763ad" stop-opacity=".5"/>
      <stop offset=".16" stop-color="#516aaf" stop-opacity=".47"/>
      <stop offset=".92" stop-color="#fcf0d2" stop-opacity="0"/>
    </linearGradient>
    <linearGradient id="_名称未設定グラデーション_106" data-name="名称未設定グラデーション 106" x1="331.05" y1="401.53" x2="463.84" y2="401.53" gradientUnits="userSpaceOnUse">
      <stop offset="0" stop-color="#f9edcf"/>
      <stop offset="1" stop-color="#fcf0d2"/>
    </linearGradient>
    <linearGradient id="_名称未設定グラデーション_786" data-name="名称未設定グラデーション 786" x1="596.44" y1="373.2" x2="858.72" y2="373.2" gradientUnits="userSpaceOnUse">
      <stop offset=".04" stop-color="#94d4f5"/>
      <stop offset="1" stop-color="#94d4f5"/>
    </linearGradient>
    <linearGradient id="_名称未設定グラデーション_786-2" data-name="名称未設定グラデーション 786" x1="563.82" y1="627.95" x2="629.41" y2="627.95" xlink:href="#_名称未設定グラデーション_786"/>
    <linearGradient id="_名称未設定グラデーション_786-3" data-name="名称未設定グラデーション 786" x1="591.7" y1="489.14" x2="718.17" y2="489.14" xlink:href="#_名称未設定グラデーション_786"/>
    <radialGradient id="_名称未設定グラデーション_771" data-name="名称未設定グラデーション 771" cx="352.36" cy="234.64" fx="352.36" fy="234.64" r="88.98" gradientUnits="userSpaceOnUse">
      <stop offset=".04" stop-color="#503216"/>
      <stop offset=".13" stop-color="#3f260f"/>
      <stop offset=".22" stop-color="#36200b"/>
      <stop offset=".63" stop-color="#331f0c"/>
      <stop offset=".83" stop-color="#2c1b10"/>
      <stop offset=".95" stop-color="#231815"/>
    </radialGradient>
    <radialGradient id="_名称未設定グラデーション_766" data-name="名称未設定グラデーション 766" cx="452.09" cy="241.7" fx="452.09" fy="241.7" r="94.83" gradientUnits="userSpaceOnUse">
      <stop offset="0" stop-color="#69451f"/>
      <stop offset=".09" stop-color="#4a2f14"/>
      <stop offset=".13" stop-color="#3f260f"/>
      <stop offset=".19" stop-color="#331d0a"/>
      <stop offset=".27" stop-color="#2c1807"/>
      <stop offset=".51" stop-color="#2b1707"/>
      <stop offset=".77" stop-color="#29170a"/>
      <stop offset="1" stop-color="#231714"/>
      <stop offset="1" stop-color="#231815"/>
    </radialGradient>
    <radialGradient id="_名称未設定グラデーション_490" data-name="名称未設定グラデーション 490" cx="527.96" cy="297.12" fx="519.81" fy="297.12" r="9.94" gradientUnits="userSpaceOnUse">
      <stop offset=".63" stop-color="#fff"/>
      <stop offset=".89" stop-color="#f2f2f3"/>
    </radialGradient>
    <linearGradient id="_名称未設定グラデーション_359" data-name="名称未設定グラデーション 359" x1="317.21" y1="293.01" x2="317.21" y2="245.4" gradientUnits="userSpaceOnUse">
      <stop offset="0" stop-color="#d2ebf3"/>
      <stop offset=".06" stop-color="#cee9f2"/>
      <stop offset=".12" stop-color="#c2e3f2"/>
      <stop offset=".18" stop-color="#afdbf1"/>
      <stop offset=".23" stop-color="#96cff0"/>
      <stop offset=".28" stop-color="#7ec2ea"/>
      <stop offset=".36" stop-color="#56ade0"/>
      <stop offset=".43" stop-color="#3ea0da"/>
      <stop offset=".47" stop-color="#359cd8"/>
      <stop offset=".51" stop-color="#2e8bc7"/>
      <stop offset=".62" stop-color="#2166a3"/>
      <stop offset=".72" stop-color="#174c89"/>
      <stop offset=".8" stop-color="#113c79"/>
      <stop offset=".87" stop-color="#0f3774"/>
      <stop offset="1" stop-color="#112646"/>
    </linearGradient>
    <linearGradient id="_名称未設定グラデーション_359-2" data-name="名称未設定グラデーション 359" x1="495.17" y1="294.27" x2="495.17" y2="247.86" xlink:href="#_名称未設定グラデーション_359"/>
    <radialGradient id="_名称未設定グラデーション_197" data-name="名称未設定グラデーション 197" cx="316.86" cy="279.5" fx="324.41" fy="292.8" r="19.27" gradientUnits="userSpaceOnUse">
      <stop offset=".1" stop-color="#fffffe" stop-opacity=".97"/>
      <stop offset=".14" stop-color="#fefdf9" stop-opacity=".87"/>
      <stop offset=".21" stop-color="#fefaf0" stop-opacity=".67"/>
      <stop offset=".3" stop-color="#fdf7e8" stop-opacity=".49"/>
      <stop offset=".38" stop-color="#fdf5e1" stop-opacity=".34"/>
      <stop offset=".46" stop-color="#fcf3db" stop-opacity=".22"/>
      <stop offset=".55" stop-color="#fcf1d7" stop-opacity=".12"/>
      <stop offset=".64" stop-color="#fcf0d4" stop-opacity=".05"/>
      <stop offset=".74" stop-color="#fcf0d2" stop-opacity=".01"/>
      <stop offset=".86" stop-color="#fcf0d2" stop-opacity="0"/>
    </radialGradient>
    <radialGradient id="_名称未設定グラデーション_197-2" data-name="名称未設定グラデーション 197" cx="496.17" cy="281.39" fx="503.6" fy="294.46" r="18.93" xlink:href="#_名称未設定グラデーション_197"/>
    <linearGradient id="_名称未設定グラデーション_171" data-name="名称未設定グラデーション 171" x1="116.93" y1="403.81" x2="211.01" y2="403.81" gradientUnits="userSpaceOnUse">
      <stop offset="0" stop-color="#fcf0d2"/>
      <stop offset="1" stop-color="#fcf0d2"/>
    </linearGradient>
    <linearGradient id="_名称未設定グラデーション_171-2" data-name="名称未設定グラデーション 171" x1="616.45" y1="419" x2="707.9" y2="419" xlink:href="#_名称未設定グラデーション_171"/>
  </defs>
  <g id="_レイヤー_6" data-name="レイヤー_6">
    <path class="cls-13" d="M502.54,133.66c.44-.59,36.64,14.73,41.91,16.91,5.27,2.18-9.07,127.18-9.07,127.18,0,0-9.12,49.59-10.08,51.06-.93,1.42-53.06,35.34-114.47,33.39-.39-.01-.78-.04-1.16-.04-21.9-.17-46.33-3.21-66.88-9.4-34.43-10.37-60.13-26.01-59.42-26.8.1-.11-46.03-155.24,11.28-169.56,40.76-10.18,207.89-22.74,207.89-22.74Z"/>
    <path class="cls-11" d="M495.17,687.22c2.55-.6,5.02-.87,7.4-.72,2.51.77,4.64,1.61,6.43,2.53,1,.78,1.96,1.89,2.87,3.46,2.01,3.41,3.37,7.01,4.25,10.76l1.56,10.58-1.73,4.69-28.25-10.61-5.24-5.23,12.72-15.44Z"/>
    <path class="cls-11" d="M279.45,696.21l7.98,8.7s-2.2,22.1-2.41,22.24-15.3-1.49-15.5-1.39c-.92.46.82-24.84,1.97-25.53,2.34-2.07,5.01-3.38,7.98-4.02Z"/>
    <path class="cls-20" d="M523.73,152.63c.44-.59,15.37-4.06,20.63-1.89,5.27,2.18-9.07,127.18-9.07,127.18,0,0-9.12,49.59-10.08,51.06-.93,1.42-53.06,35.34-114.47,33.39-.39-.01-.78-.04-1.16-.04-21.9-.17-46.33-3.21-66.88-9.4-34.43-10.37-60.13-26.01-59.42-26.8.1-.11-46.03-155.24,11.28-169.56,40.76-10.18,229.17-3.95,229.17-3.95Z"/>
    <path class="cls-14" d="M524.01,154.26c.44-.59,15.37-4.06,20.63-1.89,5.27,2.18-9.07,127.18-9.07,127.18,0,0-9.12,49.59-10.08,51.06-.93,1.42-53.06,35.34-114.47,33.39-.39-.01-.78-.04-1.16-.04-21.9-.17-46.33-3.21-66.88-9.4-34.43-10.37-60.13-26.01-59.42-26.8.1-.11-46.03-155.24,11.28-169.56,40.76-10.18,229.17-3.95,229.17-3.95Z"/>
    <path class="cls-12" d="M504.02,124.15c.44-.59,35.07,24.41,40.34,26.59,5.27,2.18-9.07,127.18-9.07,127.18,0,0-9.12,49.59-10.08,51.06-.93,1.42-53.06,35.34-114.47,33.39-.39-.01-.78-.04-1.16-.04-21.9-.17-46.33-3.21-66.88-9.4-34.43-10.37-60.13-26.01-59.42-26.8.1-.11-46.03-155.24,11.28-169.56,40.76-10.18,209.47-32.42,209.47-32.42Z"/>
    <path class="cls-11" d="M275.22,275.48c1.93,2.73,6.41,12.93,23.56,16.46,13.23,2.72,34.69.81,34.69.81,0,0,7.91-6.15,10.9-26.63s0-23.94,0-23.94l-20.57-4.2-18.29,2.5-37.29,12.02,7.01,22.99Z"/>
    <path class="cls-11" d="M465.07,243.29s-.29,12.32,2.18,24.7c2.41,12.09,7.38,22.71,11.51,24.52,8.34,3.66,33.7,1.32,33.7,1.32,0,0,27.48-4.11,29.59-36.27,2.11-32.16.02-.7.02-.7l-.02.7-21.44-13.75s-11.66-5.19-28.67-5.43c-17-.25-19.39,1.92-19.39,1.92l-6.74,2.65"/>
    <path class="cls-1" d="M404.23,327.47c-12.09-.92-13.11-3.06-13.11-3.06l-1.96-4.03,2.91-3.7,4.12-1.5,3.43.68,4.1,1.46,3.49-.19,5-1.21,4.34.22s2.43.53,2.52.57,2.32.97,2.4,1.13,1.1,1.66,1.12,1.72.18,2.87.18,2.87l-1.01,2.6-2.54,1.45-1.04.82s-.73,1.17-13.94.16Z"/>
    <path class="cls-26" d="M372.24,359.28l-5.75-.92-6.37,18.18s-3.43,5.73-8.61,9.33c-3.05,2.12-6.56,3.41-9.32,3.45-7.45.11-7.13.48-7.13.48-.38-.29-1.78,1.63-2.99,4.15-.78,1.63-1.21,4.33-.9,6.18.16.97.36,3.77,2.18,7.24,2.84,5.39,8.49,12.69,15.42,19.45,10.15,9.9,24.74,18.09,43.78,17.88,5.2-.06,11.37-.21,17.64-2.09,7.78-2.33,15.79-6.86,23.32-11.71,11.98-7.71,22.24-18.85,27.79-26.1,2.54-3.31,2.28-9.71,2.55-11.5.12-.78-9.82-2.06-10.42-2.66-2.11-2.13-4.77-4.26-8.04-6.38-.5-.32-2.42-2.2-3.7-4.79-2.87-5.83-4.03-13.23-4.93-17.82"/>
    <path class="cls-9" d="M457.46,382.88l-15.77-4.26.84,1.79s2.95,5.71,9.86,9.07,10.85,2.93,10.85,2.93l2.65-.97-8.43-8.56Z"/>
    <path class="cls-9" d="M358.31,376.04l-10.92,6.06-11.14,6.78-.14.55s10.62,1.23,17.31-5.6,6.51-7.55,6.51-7.55l-1.63-.25Z"/>
    <path class="cls-21" d="M271.18,202.66c6.6.81,12.68-.47,17.85-5.43,3.98-4.6,8.35-10.44,11.19-21.28.06-.24.68.4.81.19l-2.33,19.49c5.71,1.36,11.06,1.29,15.3,2.12,4.92.97,6.71-.55,8.24-2.55,6.04-4.72,11.66-17.67,17.05-35.39.25,2.12.03,6.67-.2,11.28l-1.44,16.07-2.62,15.09c3.5.69,6.85.25,9.76.89,4.38.96,8.1-.02,10.93-3.85.81-1.1,1.96-1.96,2.77-3.21,3.51-3.87,8.73-28.65,13.85-52.25.36,3.43.73,6.86-.98,12.71l-3.34,43.23,12.95-.29c2.11-.13,3.43-1.35,4.64-2.71,4.56-9.99,8.76-21.46,12.71-33.92.81,1.77.25,11.56-.45,22.16l-2.06,18.88c9.29-1.43,18.65-1.81,20.84-3.53,4.39-2.69,8.35-12,12.13-23.98l1.95,12.53.86,15.28c6.95.07,14.17.34,17.67-2.32,4.34-2.32,5.98-8.98,6.15-18.02l2.42,17.23c2.23.05,4.5-.83,6.41-1.22,4.19-.86,6.97-2.53,6.28-9.19-.11-1.06.39-2.16.49-3.38l-3.79-47.86c3.75,5.78,7.06,12.9,9.36,23.15,2.43,9.69,3.55,23.04,4.34,37.27,7.04,1.77,12.55.95,15.93-3.45,3.4-4.66,4-13.81,4.21-23.61,1.21,8.77,1.67,17.75,1.54,26.88,15.36.14,27.49-.63,27.53-4.78,1.42-4.49,2.67-10.01,3-16.5.1-1.9.37-3.67.21-5.73-.79-10.07.09-14.97.07-21.95,5.9,26.51,8.04,54.85,5.39,85.51-2.63,32.33-7.65,62.8-13.5,92.56-14.16,8.93-28.19,16.06-42.07,20.86-14.55,5.38-30.22,9.06-46.58,11.69l4.61,17.15,23.79,2.26,20.32,38.33,2.14,234.57,10.54,8.65c2.57,2.25,5.42,3.08,8.68,1.86,3-1.81,5.65-4.26,7.34-8.39l1.23-1.92c2.8,1.86,6.19,3.25,10.44,3.97,5.17.8,8.1.23,9.64-1.18,2.59-2.65,4.51-5.88,5.74-9.71l5.3-19.62-.49,16.03-3.35,22.02c-1.07,3.06-1.16,6.36-.98,9.72.38,2.15,1.77,3.29,5.51,2.08l6.54-2.59c3.55-4.92,6.65-11.54,8.7-22.11l2.78-14.29,2.37-17.86,14.03-137.72,16.47-20.45-9.37-41.18c1.14-24.32,3.97-52.01,6.99-80.07l1.63-27.43-.32-101.65c.49-20.36-1.4-40.29-6.02-59.74-4.39-19.68-12.37-39.9-22.37-60.45-15.68-30.29-36.82-54.5-65.34-68.95-.19-.1-.37-.2-.56-.28-16.53-7.45-34.41-12.88-53.62-17.86-13.31-3.46-27.8-4.31-43.06-3.97-2.89,0-5.76-.23-8.53.16-26.48,3.8-49.42,8.9-68.55,15.5-.55.19-1.08.44-1.62.67-29.81,12.58-49.35,37.77-64.83,65.15-12.08,23.51-22.08,47.83-28.21,73.61-7.54,26.41-10.73,61.11-12.91,97.71-3.1,53.6-6.62,105.06-9.77,137.24l-4.29,31.61,1.99,10.62,29.52,162.48c-1.52,16.44-1.67,32.13.04,46.79,1.29,10.04,4.39,18.79,9.97,25.78,4.31,7.89,11.78,10.86,21.4,10.52l-3.43-16.57c1.71,6.97,5.2,12.93,14.76,15.47l21.67-173.06-59.4-34.49,83.46-89.03,33.23-4.71,6.05-17.68c-18.73-2.82-37.84-9.34-57.17-17.93-8.89-4.44-17.5-9.32-25.95-14.47l-4.84-17.58c-10.5-38.2-10.52-72.55-7.35-105.72Z"/>
    <path class="cls-22" d="M597.25,313.48c.54.09,1.66,5.56,4.82,12.48,2.11,4.63,5.41,9.67,9.07,15.08,5.48,8.1,14.56,15.57,21.29,21.24,5.17,4.36,11.8,9.92,19.96,15.78s17.03,9.45,26.22,13.63c13.2,6,28.15,6.06,35.48,6.09,1.14.14,2.12.16,2.92.05,12.36-1.68,28.23-7.2,43.17-10.69,16.28-3.8,17.92-5.48,38.67-4.25,7.75.46,22.02.79,27.35,3.71,16.7,6.34,31.41,34.31,32.51,46.31-16.91-15.09-35.07-26.97-55.7-32.45-16.18-4.73-40.24-3.33-71.1,3.34-5.97,1.99-11.42,2.53-16.23,1.25l-35.36-9.87-31.55-12.4c-11.05-6.06-21.35-12.4-29.42-19.61-8.52-8.99-15.94-19.45-22.93-30.47l.82-19.22Z"/>
    <path class="cls-21" d="M220.85,261.19l-3.02,50.78-23.96,60.04-69.01,135.07c-4.56,10.41-8.64,21.44-12.11,33.26-2.94,10.4-4.27,20.22-4.26,29.54-.09,19.95,3.29,37.85,10.65,53.4-11.12-9.19-19.41-18.76-24.16-29.78-1.66-3.84-2.68-8.3-3.53-12.37-.42-2.62-.09-6.23.74-10.51l3.56-11.07,23.3-50.59,11.73-30.37,17.3-33.71,11.23-13.99,30.23-66.8,17.71-46.95,13.6-55.95Z"/>
    <path class="cls-21" d="M166.77,537.54l62.8,55c-.57,11.43,0,23.39,1.31,35.68,1.86,16.04,4.3,30.97,7.5,44.44l-6.14-3.22-4.55-4.21c1.45,5.56,3.02,10.68,4.84,14.9-6.58-.14-11.27-2.76-14.37-7.46-2.61-3.5-4.67-8.87-6.2-16.03l-4.72-24.89c-1.03,9.16-.78,19.1,0,29.36-6.02-4.33-11.25-10.3-15.03-19.34-3.36-7.05-5.98-15.38-8.23-24.32-.5,5.65-.55,11.3,0,16.96.49,4.56,1.32,7.99,2.74,9.58-3.68-1.38-7.1-3.13-9.86-5.8-1.75-1.7-2.95-4.26-3.81-7.33-4.22,1.66-7.6.77-10.63-1.22-4.23-3.35-7.22-7.48-9.8-11.85-2.11-4.57-2.77-9.9-2.46-15.72l1.58-13.18c1.37-7,3.15-14.48,5.3-22.42,2.62-9.72,5.91-19.35,9.72-28.91Z"/>
    <path class="cls-10" d="M575.02,619.52c1.01,10.04.11,20.44-2.36,31.16-2.41,11.68-5.45,22.53-8.84,32.93,8.75,3.22,17.84,3.15,27.55-2.93,4.32-3.03,9.26-7.07,16.35-14.63l-3.55-.1c3.66.82,8.22-1.29,14.46-8.78,6.07-8.48,9.71-16.01,10.78-22.52-1.11-17.82-6.16-36.33-12.64-55.1l-41.46-9.36-.29,49.32Z"/>
    <path class="cls-24" d="M594.15,358.36c6.18,9.51,11.98,33.31,27.07,48.64,5.72,5.81,10.45-2.07,15.56,3.98,15.82,18.74,31.83,34.93,46.95,49.64,3.29,3.2,6.46,6.57,9.38,10.32,7.47,16.45,14.14,37.08,19.62,63.96,2.68,10.59,4.39,21.99,5.32,34.04.43,7.88-.41,16.15-1.91,24.62l-7.37,26.35c-1.61-26.86-3.73-53.25-7.64-77.92l-6.86-29.9-13.04-27.42c-1.96-3.71-4.12-7.31-6.98-10.48l-12.8-13.23-37.01-35.9-6.66-4.96-10.67-8.41c-3.65-2.95-6.9-6.6-9.92-10.65-2.56-3.64-4.38-9.74-5.49-18.29l2.45-24.42Z"/>
    <path class="cls-16" d="M282.11,678.43l200.78,24.8c1.72,1.88,3.35,3.47,4.71,4.17,3.54.02,7.07.39,10.6.99l7.19,5.97,8.73,3.57c.37-.61,9.75,3.15,10.18,4.12.42.92-1.1,16.99-2.1,16.52l-4.95,22.79-.96,8.84-.8.35c2.18,3.42,2.49,8.95,1.43,16.03-.99,7.11-2.58,14.6-4.47,22.29-2.97,7.6-6.68,14.47-11.57,20.12-6.8,9.99-15.17,15-24.55,16.83-9.98.85-20.98-.79-32.51-3.74-9.67-2.33-18.29-5.98-25.54-11.32-5.24-4.85-9.75-9.97-12.71-15.66-4.37-5.12-6.03-13.22-7.37-21.7-.44,10.9-.96,19.5-4.11,27.66-2.57,8.15-7.11,14.92-12.44,21.14-3.91,4.13-8.26,7.07-13.15,8.54,0,0-21.21,3.2-21.61,3.25-8.42,1.08-17.71,2.51-25.23,2.48-7.47-.03-15.73.44-21.17-.62-6.1-1.18-9.36-2.41-13.67-4.74-2.4-1.29-8.65-10.62-12.3-17.76q-2.19-4.29-4.63-9.25c-7.97-17.85-13.54-31.11-14.13-55.44-.38-15.96.84-29.19,3.75-37.8l2.91-3.43,2.94-1.16,2.55.43,3.36-1.22,3.94-2.18,2.93-2.87,2.34-1.68,2.5-10.85.44-2.59c-2.47-5.43-4.05-11.06-4.68-16.91.65-2.57,1.83-5.05,3.34-7.48v-2.49Z"/>
    <circle class="cls-4" cx="69.1" cy="143.45" r="20.95"/>
    <circle class="cls-4" cx="186.46" cy="118.49" r="6.26"/>
    <circle class="cls-4" cx="7.82" cy="436.13" r="7.32"/>
    <circle class="cls-4" cx="788.96" cy="338.2" r="19"/>
    <circle class="cls-4" cx="696.98" cy="293.19" r="4.72"/>
    <path class="cls-4" d="M234.21,102.98c-10.51,25.58-50.54,33.92-126,21.16,102.29,21.03,134.45,49.26,47.82,89.7,41.18,16.27,48.47,36.32,30.71,59.16,4.16,7.97,10.2,21.02,4.86,31.28"/>
  </g>
  <g id="_レイヤー_2" data-name="レイヤー_2">
    <path class="cls-3" d="M206.46,424.65s5.28-27.03,8.23-66.2c4.56-60.63,8.25-146.94,14.65-180.82,10.54-55.76,41.71-142.68,104.49-162.88s103.61-19.76,165.95,6.59,94.39,115.9,96.59,168.15,2.2,108.88,0,144.44-10.54,75.07-6.15,94.39,7.79,32.93,7.79,32.93l-3.4,40.39-53.12,13.61-46.98-54-99.66,13.31-88.24-17.26-51.8-8.34-28.1,33.8-32.83-38.06,12.58-20.05Z"/>
    <path class="cls-3" d="M266.66,202.66h6.59s17.56,3.95,25.9-23.27c8.34-27.22,35.56-99.66,39.51-100.1"/>
    <path class="cls-3" d="M344.36,143.83s-9.22,30.29-13.61,39.07c-4.39,8.78-10.54,16.24-15.37,15.37-4.83-.88-16.24-1.32-16.68-3.07,0,0,.12-16.24,6.55-34.26"/>
    <path class="cls-3" d="M339.94,159.16s-1.83,29.2-3.51,36.59-1.39,6.51-1.39,6.51c0,0,12.95,1.76,14.93,1.24s10.61-3.73,14.78-24.8,14.2-64.39,16.24-67.02"/>
    <path class="cls-3" d="M373.38,141.09s-3.66,33.37-4.17,45.29c-.51,11.93-1.39,12.88-1.17,13.39,0,0,11.49.22,12,0,.51-.22,4.1,1.32,7.24-6.07,3.15-7.39,18.59-50.27,20.78-66.07"/>
    <path class="cls-3" d="M430.23,145.59s1.32,23.41-2.93,34.68-6.29,20.85-15.22,21.51-16.02,2.12-16.24,2.12,4.22-30.96,2.88-42.19"/>
    <path class="cls-3" d="M454.52,176.9s.51,13.98,0,16.54-3.15,10.32-11.71,10.46-11.2.29-11.2.29c0,0,.24-11.63-2.81-29.45"/>
    <path class="cls-3" d="M446.99,66.12s13.76,22.54,19.02,63.44c5.27,40.9,5.12,56.71,4.98,59.41-.15,2.71-.15,10.29-5.56,10.89-5.41.6-7.98,1.33-7.98,1.33,0,0-.13-9.88-2.7-20.41"/>
    <path class="cls-3" d="M501.5,166.66s-1.32,24.29-2.71,26.78c-1.39,2.49-4.02,7.17-10.9,7.24-6.88.07-6.95-.82-6.95-.82,0,0,.07-40.36-13.76-60.93"/>
    <path class="cls-3" d="M532.67,133.66s1.32,43.24-.44,52.98c-1.76,9.73-2.56,12-10.61,12.37s-19.02.87-19.02.87c0,0,.9-7.74-1.52-26.33"/>
    <path class="cls-3" d="M468.61,34.51s36,2.2,53.12,68.49c17.12,66.29,26.34,97.9,8.78,196.68s-16.68,90-16.68,90l23.27,42.29,29.41,6s6.59-66.29-3.95-111.95c-10.54-45.66-12.73-69.37-7.46-100.1,5.27-30.73.88-47.85.88-47.85,0,0,4.35,16.68-2.23-4.83"/>
    <path class="cls-3" d="M339.1,39.78s-18-.44-37.76,52.24c-19.76,52.68-47.41,127.76-21.95,219.51s17.13,70.88,17.13,70.88l-18.45,22.63-16.68-10.54s-16.24-76.39-16.68-119.85,7.46-97.02,16.24-118.54"/>
    <path class="cls-3" d="M597.54,302.97c.58,9.22-.59,20.63,16.97,42.44,4.94,6.13,31.41,29.38,43.16,36.05,26.15,14.84,38.48,15.74,54.19,16.59s61.17-17.25,74.27-15.5c4.38.59,34.21-.93,45,6.44,21.46,14.65,27.5,43.93,27.59,43.92"/>
    <path class="cls-3" d="M858.1,432.69s-36.38-37.7-81-34.85c-44.62,2.85-44.34,7.19-55.43,7.96s-85.45-21.73-104.76-45.33c-19.32-23.6-20.47-27.77-20.47-27.77"/>
    <path class="cls-3" d="M594.28,357.2s13.38,33.99,22.23,44.96c8.85,10.98,68.56,55.76,76.6,68.78,8.05,13.02,28.39,85.32,24.44,113.41-3.95,28.1-8.78,35.56-8.78,35.56"/>
    <path class="cls-3" d="M708.77,619.92s-4.24-87.59-16.54-112.72-12.83-28.24-21.99-37.13c-9.16-8.89-30.84-33.95-50.6-48.73s-26.78-19.39-27.95-41.93"/>
    <path class="cls-3" d="M614.53,572.87s18.44,52.9,14.27,65.2-14.78,29.41-24.62,27.88c0,0,2.78-37.5-9.89-63.86s20.25-29.21,20.25-29.21Z"/>
    <path class="cls-3" d="M607.72,666.04c-12.23,12.66-18.18,17.32-27.88,19.22-9.95,1.95-16.02-1.66-16.02-1.66,0,0,14.71-43.44,11.2-64.09-3.51-20.65-2.23-28.55-2.23-28.55"/>
    <path class="cls-3" d="M567.55,620.96s-5.49,51.35-15.8,54.87-10.17,1.32-10.35-3.73,9.6-35.46,3.28-68.22"/>
    <path class="cls-3" d="M546.72,622.27s-4.19,34.98-14.51,35.82-17.2-4.42-17.2-4.42"/>
    <path class="cls-3" d="M531.55,603.88s-11.87,43.02-18.78,54.3c-6.9,11.28-13.71,4.7-13.71,4.7"/>
    <path class="cls-3" d="M217.96,310.03s-13.99,41.25-36.38,89.76-52.46,86.71-67.61,136.32,5.71,88.24,5.71,88.24c0,0-23.82-20.84-27.66-39.29-4.61-22.17,14.39-39.4,35.78-98.52,17.06-47.14,24.86-40.87,43.93-77.85,4.84-9.4,25.73-65.99,28.07-71.24,11.56-25.9,21.82-83.63,21.82-83.63"/>
    <path class="cls-3" d="M166.77,537.54s-24.23,61.22-14.14,80.24,20.43,13.07,20.43,13.07"/>
    <path class="cls-3" d="M182.17,556.2s-10.36,30.27-9.63,49.58c.73,19.32-4.54,31.76,14.2,38.2,0,0-6.73-5.41-.59-50.49"/>
    <path class="cls-3" d="M183.82,616.69s7.51,35.33,23.43,44.41c0,0-3.68-38.2,6.12-57.95"/>
    <path class="cls-3" d="M207.25,629.63s4.45,30.67,7.44,36.44,5.27,13.46,17.85,14.05c0,0-5.56-11.41-7.17-29.71"/>
    <path class="cls-3" d="M227.48,664.24s3.45,6.08,10.91,8.42c0,0-10.72-43.98-8.82-80.12"/>
    <path class="cls-3" d="M238.75,595.34s-5.19,49.66,6.08,66.93c11.27,17.27,15.07,15.35,25.32,16.16l-4.97-23.55s1.89,13.54,7.31,17.78c5.41,4.24,8.98,4.32,8.98,4.32"/>
  </g>
  <g id="_レイヤー_3" data-name="レイヤー_3">
    <path class="cls-3" d="M472.41,165.51s8.67,10.26,23.1,13.12c14.43,2.85,26.23,4.17,29.25,4.06"/>
    <path class="cls-3" d="M334.28,165.56s-6.86,4.12-23.05,8.73-16.9,4.99-29.2,6.64"/>
    <path class="cls-3" d="M296.86,221.98s7.35-2.74,15.7-3.35,15.64-.82,15.64-.82"/>
    <path class="cls-25" d="M268.21,252.49s1.37-8.89,9.27-12.9,14.43-7.41,22.28-9.38,11.96-3.62,18.27-3.73,13.06.44,20.09,2.25,9.38,4.55,9.22,4.55-1.04,6.91-1.81,7.96-.38,1.15-.38,1.15c0,0-15.8-4.45-22.39-4.45s-17.07,2.14-26.56,5.05-15.09,4.17-27.99,9.49Z"/>
    <path class="cls-3" d="M405.67,279.87s-.62,1.39-.53,2.58"/>
    <path class="cls-3" d="M478.75,220.07s9.04-1.02,14.63-.29c5.6.73,12.7,2.89,12.7,2.89"/>
    <path class="cls-23" d="M464.04,234.91s2.82-2.3,6.62-3.37,9.8-1.68,9.8-1.68c0,0,3.55-.29,8.23-.29s15.04.26,21.62,2.16,14.27,5.52,14.27,5.52c0,0,10.17,6.18,12,8.67s4.65,8.93,5.38,10.72.55,3,.55,3c0,0-14.78-12.11-26.38-15.66s-22.28-3.51-22.28-3.51c0,0-12.11-.18-17.34.95s-10.98,3.95-10.98,3.95c0,0-.55.07-.88-.29s-1.61-7.68-1.35-8.52.73-1.65.73-1.65Z"/>
    <path class="cls-6" d="M517.75,296.17s.26-4.35,9.07-4.23,11.32,3.07,11.63,5.14,1.7,5.58-11.11,5.19-9.89-4.28-9.59-6.11Z"/>
    <path class="cls-3" d="M418.23,327.02s5.16-.09,5.03-5.58c-.13-5.49-6.37-5.52-9.84-5.49-3.48.04-6.04,1.66-8.21,1.61-2.18-.05-3.46-.93-4.94-1.43-1.48-.49-5.07-2.45-9.48,1.81-4.41,4.26,2.03,7.64,2.03,7.64"/>
    <path class="cls-3" d="M525.37,328.47s-49.55,36.91-123.37,33.8-118.63-36.3-118.63-36.3"/>
    <path class="cls-3" d="M512.93,310.17s-.66,5.49-3.13,8.4"/>
    <path class="cls-3" d="M498.06,310.17s-.71,6.31-2.69,8.4"/>
    <path class="cls-3" d="M487.52,310.17s-.38,5.27-4.28,8.4"/>
    <path class="cls-3" d="M325.3,307.21s-.22,5.93-3.02,9.93"/>
    <path class="cls-3" d="M313.34,307.21s.93,5.71-2.36,9.93"/>
    <path class="cls-3" d="M300.17,307.21s.33,6.04-2.8,9.93"/>
    <path class="cls-3" d="M366.03,358.46s-2.95,15.3-6.69,19.03c-3.73,3.73-6.42,11.47-20.25,12.13s-12.35.6-12.35.6l-7.48,54.53,78.59,14.16,67.94-18.88.77-47.41s-8.67,1.76-16.57-4.61c-7.9-6.37-9.4-8.48-11.74-19.1s-1.58-7.55-1.58-7.55"/>
    <path class="cls-7" d="M296.54,265.38s2.44-20,22.23-19.98,19.54,20.88,19.54,20.88c0,0,1.48,26.78-23.41,26.73-23.3-.22-18.36-27.63-18.36-27.63Z"/>
    <path class="cls-2" d="M314.09,270.41c-.56-1.29-.59-2.75-.1-4.06.52-1.39,1.49-2.98,3.24-3.07,1.81-.08,2.77,1.65,3.25,3.12.45,1.36.35,2.86-.29,4.14-.56,1.13-1.5,2.31-2.96,2.44-1.59.14-2.58-1.28-3.14-2.58Z"/>
    <path class="cls-8" d="M303.41,260.02c-.4-1.3-.33-2.7.16-3.96.59-1.5,1.7-3.32,3.66-3.32,2.59,0,3.04,3.14,3.12,4.57.02.46,0,.92-.08,1.38-.24,1.35-1.06,4.24-3.58,4.37-1.9.09-2.83-1.59-3.28-3.04Z"/>
    <path class="cls-5" d="M473.57,270.84s1.54-22.98,22.65-22.98c19.78,0,20.59,24.07,20.59,24.07,0,0,1.18,22.37-21.44,22.33-24.06,0-21.8-23.43-21.8-23.43Z"/>
    <path class="cls-2" d="M492.26,271.74c-.56-1.29-.59-2.75-.1-4.06.52-1.39,1.49-2.98,3.24-3.07,1.81-.08,2.77,1.65,3.25,3.12.45,1.36.35,2.86-.29,4.14-.56,1.13-1.5,2.31-2.96,2.44-1.59.14-2.58-1.28-3.14-2.58Z"/>
    <path class="cls-18" d="M296.86,278.57s22.7-11.35,30.71-12.88,9.36,11.1,9.36,11.1c0,0,0,5.5-5.11,10.15s-15.37,6.46-15.37,6.46c0,0-3.08.43-8.5-1.46-3.93-1.37-11.99-10.08-11.09-13.36Z"/>
    <path class="cls-19" d="M476.17,281.23s22.7-11.35,30.71-12.88c8.01-1.54,9.36,11.1,9.36,11.1,0,0,0,5.5-5.11,10.15s-15.25,4.78-15.25,4.78c0,0-3.05.84-8.47-1.04-3.93-1.37-12.14-8.82-11.24-12.1Z"/>
    <path class="cls-3" d="M473.57,270.84s.96-23.44,22.07-23.52,21.22,23.85,21.22,23.85c0,0,1.05,23.39-21.5,23.09-23.26,0-21.8-23.43-21.8-23.43Z"/>
    <path class="cls-3" d="M296.09,265.28s2.36-19.98,22.72-20.25,19.92,21.29,19.92,21.29c0,0,1.81,25.96-22.83,27.11s-19.81-28.15-19.81-28.15Z"/>
    <path class="cls-8" d="M481.19,262.13c-.4-1.3-.33-2.7.16-3.96.59-1.5,1.7-3.32,3.66-3.32,2.59,0,3.04,3.14,3.12,4.57.02.46,0,.92-.08,1.38-.24,1.35-1.06,4.24-3.58,4.37-1.9.09-2.83-1.59-3.28-3.04Z"/>
    <path class="cls-8" d="M507.7,267.42c-.01-.11,0-.21.01-.32.17-.86.65-1.93,3.65-1.93,3.22,0,3.68,1.7,3.67,2.06,0,.02,0,.03,0,.05-.03.36-.51,2.01-3.67,2.17-2.94.15-3.57-1.15-3.67-2.03Z"/>
    <path class="cls-8" d="M328.9,265.59c-.01-.11,0-.21.01-.32.17-.86.65-1.93,3.65-1.93,3.22,0,3.68,1.7,3.67,2.06,0,.02,0,.03,0,.05-.03.36-.51,2.01-3.67,2.17-2.94.15-3.57-1.15-3.67-2.03Z"/>
  </g>
  <g id="_レイヤー_5" data-name="レイヤー_5">
    <path class="cls-9" d="M449.32,372.62l14.46,2.4c3.29-2.57,5.69-4.91,12.74-2.8,4.04,1.21,8.56,3.69,14.23,11.02l.9,1.42c5.43-.27,11.7,2.01,18.16,4.86l3.12,1.77c7.75,2.28,14.74,5.92,20.55,10.48,1.03.81,1.58,1.75,2.57,2.61l2.76,1.56c2.46-.87,4.77-.76,6.51-1.51,3.47-1.49,5.75-.32,7.27,2.1,2.39,3.8,4.22,9.16,3.45,17.46,2.26,2.98,3.39,6.75,6.09,8.8,5.88,4.47,7.82,9.76,7.01,15.3-.1.71.03,1.43.13,2.11.26,1.8.89,3.52.89,5.24l2.79,6.95,8.58,20.23,4.43-5.27c-1.51-4.15,2.3-6.53,7.18-8.55l24.62-29.3c2.98-1.66,5.79-2.28,8.43-1.78l35.78,25.55c4.95,3.92,7.08,9.11,8.86,14.16.03.08.09.26.12.33,3.98,8.73,1.36,12.55-1.95,17.9l-39.65,66.61c-5.05,8.74-10.19,18.06-18.11,20.61-.05.02-.12,0-.14.05-.49,1.1-1.68,1.49-1.99,2.2-.06.13-.13.28-.08.4,7.26,15.77-1.89,20.08-18.21,20.22-3.16.03-5.48,3.51-8.51,5.26l-9.03,9.36c-3.58,1.3-9.04-.04-18.94-7.57-3.96-4.78-10.65-7.95-14.15-14.41-1.85-3.41-7.88-7.36-8.19-11.56-.33-4.4.36-9.85-2.14-14.63-1.62-3.1-2.92-10.74-3.22-11.23s-6.76-23.71-11.61-34.92l-7.74-7.7-.79-1.88,1.71-8.95.53-5.58-4.4-9.67-6.85-12.12c.61.8.32,3.62,2.42,8.23.16.35.09.78.13,1.19,1.29,12.66.92,37.28-.68,70.8l.35,14.93c2.15,5,3.08,9.83,4.52,14.08,5.22,15.39,3.11,26.67-4.19,34.84-2.44,2.74-3.89,6.21-6.22,9.06l-.09,3.63c8.34,32.95,5.89,47.51-1.3,54v.6c-.37.22-.83.36-1.03.73-1.1,1.98-2.56,3.92-4.41,5.48-.24.2-.34.51-.52.76-1.35,1.97-2.76,3.78-4.7,4.74-.76.38-1.69.52-2.29,1.12-2.32,2.33-5.26,3.66-8.7,4.15-.23.03-.42.19-.64.29-10.6,4.84-21.26,8.86-32.34,10.36-1.86.25-4.05.67-5.6.83s-12.25.14-20.21-1.1c-.28-.04-.55.1-.83.14-2.46.43-5.35-.17-7.41,1.22-3.14,2.13-11.1,4.14-15.81,2.83-.07-.02-.15-.08-.25-.08-4.18.19-9.75-3.06-11.43-5.04-.05-.06-.13-.07-.19-.11-.57-.33-1.09-.72-1.67-1.02-5.54-2.85-10.73-6.05-17.79-9.27-.22-.1-.47-.1-.71-.14-5.37-1.01-12.98-3.84-13.61-3.9s-9.96-1.27-14.21-1.32c-8.65-.1-15.88-1.24-21.89-5.75-.54-.41,1.35.59-.15.25-2.86-.63-21.45-13.93-26.07-21.45-.48-.72-.68-1.67-1.35-2.18-13.07-9.84-15.08-19.19-2.57-27.37,1.14-.74.86-2.6,1.38-3.9-2.44-6.92-2.77-13.42,4.84-18.35l.88-3.34c-.11-1.86.69-3.98-.27-5.56-7.32-12.02-7.95-21.79-.35-28.99,1.19-1.13,1.56-2.92,2.52-4.32l5.93-24.5c1.15-6.4,2.36-12.31,4.22-13.13-1.59-6.53-3.31-14.28-1.59-20.51,1.07-3.89,3.35-7.49,3.15-12.23-4.3,6.34-7.69,14.35-10.48,23.43l-2.9,6.48c-.31,1.35-.47,2.73-.93,4-3.58,9.78-5.15,21.32-8.28,30.1-4.73,13.28-10.42,21.82-14.62,23.54-1.95-.14-3.69.05-5.53-.1-1.63-.13-3.38-.58-4.98-.76-.23-.03-.47-.05-.7-.08-3.77-.47-7.36-1.75-11.55-2.59-6.13-1.23-11.51-4.3-17.79-9.44-.09-.07-.2-.11-.3-.16-7.88-4.24-15.57-9.5-23.05-15.84-8.76-6.69-15.18-15.16-20.95-22.83-.45-.6-1.03-1.09-1.56-1.63-4.78-4.88-8.98-10.49-11.86-17.43-1.1-2.66-2.99-4.95-4.44-7.51-.76-.71-1.23-1.93-2.3-2.47-10.23-5.13-17.34-13.96-10.56-18.48.91-.61.04-1.68.37-1.74.59-.12-1.63-5.3-2.74-8.45l-1.03-1.53c-2.62-5.76-3.53-11.2-5.81-17.31-2.34-6.28-4.54-11.62.53-16.39,1.4-1.31,1.57-3.51,2.76-5.13,4.14-5.25,9.6-9.68,15.98-13.54l49.84-15.02,5.61,3.72,21.94,41.91,11.82-40.99c.11-1.27,1.14-2.75.57-4.15-1.45-3.59-.63-7.46,3.76-12.49.51-.59.51-1.51.76-2.29,5.81-7.05,12.71-13.71,24.45-16.47l40.77-12.01c10.25-2.28,18.54-4.93,36.71-5.73l9.07,4.43-24.31,13.87c-3.61,2.99-4.51,7.45-3.88,12.72,12.62,25.91,31.57,38.25,54.67,41.68,0,0,16.88,3.72,35.21-5.9s30.35-22.59,30.35-22.59l11.06-12.59,1.39-10.3-11.63-4.83-10.94-9.51,8.05-5.88Z"/>
    <path class="cls-15" d="M174.24,462.95l-12.84-21.62-2.25-4.09-5.09-5.91-3.25-5.53-8.06-10.81-10.64-5.71-10.04.29-3.33-1.83-1.8-3.64s3.09-6.37,10.19-6.43c2.29-.02,5.31-.11,8.35.94,6.35,2.19,12.77,6.46,12.77,6.46l1.12-2.58.4-2.11-10.92-9.93-12.25-5.7-2.11-6.01,1.23-3.55c1.54-1.25,3.74-1.56,6.39-1.24l13.62,3.64,13.59,12.68,2.2-.85.32-3.84c-4.6-11.2-10.78-21.89-18.94-31.96-.42-2.95.31-5.33,2.15-7.18,2.21-.74,4.39-.72,6.52.9,4.4,3.24,8.36,7.75,11.63,14.34l9.23,22.54,2.64-.69,1.71-1.45c.57-1.06.52-2.65-.77-5.31l-4.15-28.47c.91-3.01,2.78-3.97,5.31-3.51l3.35,1.76,2.26,5.69,1.27,10.24,2.71,18.08,4.2,13.84,2.61,1.74,2.64-.59c.92-2.89,3.02-5.66,2.74-8.66-.96-10.14,2.33-10.52,3.66-14.06l4.21-1.42c2,.35,2.77,2.37,3.05,5.04l-.08.91c3.16,11.09-.38,19.07-2.5,27.7l-6.3,22.21,4.59,11.73c-10.76,15.88-21.09,20.92-31.31,23.95Z"/>
    <path class="cls-17" d="M622.45,412.16l-3.23-15.9c-2.22-3.86-3.75-7.49-2.05-10.1,2.32-.66,5.04-.26,8.64,2.51l6.88,12.87,2.39,5.79,3.67,1.36,1.96-1.07,4.63-9.65,7.24-17.21,6.99-21.33c.38-2.26,1.06-4.32,3.78-4.97,2.78-.02,4.55,1.71,4.4,6.78l-6.93,33.46,1.36,1.91,1.07.24,3.61-8.1,4.7-13.22,6.26-19.38c1.64-1.01,3-1.17,4.2-.85,2.23.89,3.2,1.97,3.48,3.16l-4.91,24.99-3.86,11.2-1.91,5.27,1.02,2.34,1.9,1.76,7.02-11.41,8.63-17.56c1.68-1.39,3.29-2.02,4.81-1.69,2.83,2.19,2.96,5.62,2.3,9.41l-10.18,20.79-3.77,10.33,1.32,1.42,2.26,1.58,2.55-2.49,8.63-12.34,5.42-.13c1.51,1.99,1.44,4.11.25,6.32l-17.28,25.82c-7.63,11.14-17.17,20.94-30.38,28.18l-8.09,21.31c-12.48-7.09-21.85-16.2-28.5-27.08l6.13-13.95-3.32-8.65-3.11-21.7Z"/>
  </g>
  <g id="_レイヤー_4" data-name="レイヤー_4">
    <path class="cls-3" d="M441.27,378.5s3.63-2.38,5.17-3.41c1.54-1.02,1.61-3.37,4.54-2.63,2.93.73,12,2.78,12.8,2.56.8-.22,4.68-5.69,13.61-2.7,8.93,2.99,13.1,11.11,14.71,13.46,1.61,2.34,4.62,4.32,4.62,4.32"/>
    <path class="cls-3" d="M581.29,482.21s-10.24-24.15-11.12-26.78.07-1.98-.66-6.66.29-7.98-2.92-11.69c-3.21-3.72-11.06-10.7-10.91-15.01s2.63-7.17-2.49-15.15-11.25.69-14.38-.99c-3.13-1.67-2.77-2.41-4.65-3.84-4.24-4.24-20.85-11.05-27.8-14.05s-12.15-3.66-14.34-3.29"/>
    <path class="cls-3" d="M553.74,529.55s18-27.37,20.49-34.1c2.49-6.73,10.98-16.98,11.27-17.85s-.15-3.37,1.46-4.98c1.61-1.61,5.56-4.1,6.59-4.68,1.02-.59,19.9-24.15,21.22-25.17,1.32-1.02,2.93-3.66,3.95-3.95,1.02-.29,6.15-2.13,8.05-.84"/>
    <path class="cls-3" d="M660.28,462.09s6.15,3.27,9.51,12.46c3.37,9.2,3.37,9.05,2.93,11.68s-.88,6.59-24.15,44.63-26.63,43.76-29.27,46.54c-2.63,2.78-9.37,6.29-9.8,7.61s5.56,13.76-2.34,17.56c-7.9,3.8-14.05,2.63-16.9,3.8-2.85,1.17-2.41,1.02-7.83,5.12-5.41,4.1-7.17,10.24-12.59,9.37-5.41-.88-13.76-5.56-16.1-8.78-2.34-3.22-12-9.51-13.46-13.46-1.46-3.95-5.27-6.59-7.17-9.66-1.9-3.07-1.9-4.68-1.9-9.07s-2.63-8.34-4.24-17.27c-1.61-8.93-9.07-31.61-12.29-36.44-3.22-4.83-9.22-6.59-8.2-12.15,1.02-5.56,2.2-6.44,2.49-10.68.06-.81-.48-2.43-1.42-4.56-4-9.12-15.23-27.55-18.19-31.44l-5.12-6.73"/>
    <path class="cls-3" d="M495.39,476.67c.8,2.63,6.62,9.12,5.45,32.68-1.17,23.56-1.54,61.02-.8,65.71.73,4.68,8.09,19.1,7.17,33.15-.57,11.74-8.2,15.95-13.32,25.76s-3.59,6.37-3.59,6.37"/>
    <path class="cls-3" d="M294.91,542.96c.07.22-2.17,3.93-2.46,6.64-.29,2.71-5.49,24.44-6.95,30.29-1.46,5.85-6.99,6.88-8.34,15.73s4.24,13.39,5.78,20.93-3.73,8.71-6,12.95c-2.27,4.24-.88,5.41.37,11.05,1.24,5.63-6.37,7.1-9.51,14.2-3.15,7.1,8.41,15.29,15.29,24.22,6.88,8.93,25.98,20.71,34.17,22.61,8.2,1.9,13.68.37,25.32,2.2,11.63,1.83,28.61,10.68,35.49,16.02,6.88,5.34,17.05,4.39,24.07,1.39,7.02-3,6.44-1.76,24.07-.8,17.63.95,39.59-10.32,47.78-12.51s22.76-18.73,24.73-29.49c1.97-10.76-4.97-43.1-4.97-43.1"/>
    <path class="cls-3" d="M298.52,553.4s-5.56-13.68-5.63-22.68c-.07-9,3.22-12.5,3.44-15.47.22-2.97,1.32-12.26,2.2-18.99.88-6.73.88-7.76.88-7.76"/>
    <path class="cls-3" d="M347.44,687.32s13.88-3.68,36,2.52,32.32,11.47,32.32,11.47"/>
    <path class="cls-3" d="M294.7,654.78s-.99,9.38,31.77,16.35c32.76,6.97,40.5-2.47,40.5-2.47"/>
    <path class="cls-3" d="M297.77,616.69c3.95,3.24,6.97,2.69,14.98,7.52,8.01,4.83,7.24,8.67,15.09,12.9s22.17,3.24,31.5,6.48c9.33,3.24,12.62,7.19,16.19,7.79,3.57.6,18.55,1.87,24.37,3.4"/>
    <path class="cls-3" d="M424.16,657.9s11.14,1.1,22.39-2.14,22.39-6.53,22.39-6.53"/>
    <path class="cls-3" d="M389.27,601.11c7.46.11,21.4,2.63,43.46-.88s36.2-11.63,36.2-11.63"/>
    <path class="cls-3" d="M322.87,583.44s50.27-18.55,81-48.4,46.21-62.12,46.21-62.12"/>
    <path class="cls-3" d="M359.93,375.79c-7.39-.15-3.07-5.08-14.12-4.37-11.05.71-30,4.81-43.39,8.91-13.39,4.1-37.32,10.32-43.9,14.93-6.59,4.61-15.8,17.85-15.59,21.44s1.61,5.78-.73,11.12-6.44,22.54-7.9,28.24c-1.46,5.71-2.85,9.59-2.85,9.59"/>
    <path class="cls-3" d="M259.54,521.33c-3.15-6-7.76-13.54-7.98-14.78s.29-10.83-3.22-15.66c-3.51-4.83-6.66-8.05-9.15-8.34-2.49-.29-.8-2.71-10.17-20.85-9.37-18.15-17.08-34.19-18.66-36.8-1.54-2.55-5.78-5.07-6.48-4.88"/>
    <path class="cls-3" d="M297.28,506.3s-.05,3.47-1.13,5.37c-1.08,1.9-3.9,6.07-6.75,13.46-2.85,7.39-8.63,22.17-9.73,28.26s-7.54,26.91-8.27,29.32c-.73,2.41-6.88,12.73-10.9,15.29-4.02,2.56-18.37-1.61-26.05-3.59-7.68-1.98-17.27-10.32-24.8-14.49-7.54-4.17-12.66-9.66-18.29-14.05-5.63-4.39-12.51-14.34-20.85-23.63-8.34-9.29-11.71-21.15-14.63-23.2-2.93-2.05-7.46-4.83-12.8-10.68-5.34-5.85,2.05-9.07,1.24-11.2-.8-2.12-9.88-25.54-11.71-33.15-1.83-7.61,1.78-8.57,5.05-14.71,3.1-5.83,10.79-11.73,18.02-15.08"/>
    <path class="cls-3" d="M135.83,458.37c-.44,1.1-2.52,5.89,11.52,6.18,14.05.29,26.89,1.94,42.8-9.37,15.91-11.3,19.26-22.83,17.34-26.56-1.92-3.73-.82-1.7-.82-1.7"/>
    <line class="cls-3" x1="205.01" y1="439" x2="200.78" y2="426.73"/>
    <path class="cls-3" d="M191.59,433.59s7.31-2.53,10.15-8.79c2.88-6.35,7.98-31.2,9.16-35.16,1.3-4.38-.91-12.4-1.46-14.93-.55-2.52-.64-3.36-3.68-3.36-1.66,0-5.98,1.97-6.68,9.86-.93,9.49-1.54,11.91-2.91,14.32-1.37,2.41-1.92,3.13-1.92,3.13"/>
    <path class="cls-3" d="M195.13,396.41c-3.95-.88-3.51.55-5.16-5.1-1.65-5.65-3.51-11.03-3.9-13.5-.38-2.47-2.52-17.23-2.58-21.24s-2.8-10.04-3.35-10.54c-.55-.49-3.35-1.92-5.54-1.15-2.2.77-3.73,3.51-2.41,7.24,1.32,3.73,2.41,16.08,2.74,18,.33,1.92.99,5.16,1.48,7.19.49,2.03,1.04,2.87.71,4.06s-3.08,3.21-4.72,2.83c-1.65-.38-3.92-10.89-8.37-20.76-3.01-6.67-8.02-12.55-10.47-14.63-6.09-5.16-9.04-2.01-9.04-2.01,0,0-3.35,3.95-1.65,6.8,1.7,2.85,2.03,1.43,5.54,6.86,3.51,5.43,10.59,17.82,11.52,20.34s2.14,5.21,2.2,5.76c.05.55.38.59-.06,1.64-.44,1.05-.82,2.07-2.3,2.22s-9.33-11.03-13.45-12.62c-4.12-1.59-13.39-4.23-16.74-4.06-3.35.16-6.04,2.09-4.88,6.48,1.15,4.39,1.72,5.32,6.16,6.86,4.45,1.54,6.13,1.7,7.94,3.35,1.81,1.65,5.93,4.72,8.23,6.64,2.3,1.92,2.69,3.29,2.69,3.29,0,0,.55,1.1.05,1.37-.49.27-1.24,3.32-1.57,3.32s-2.82-1.84-7.32-4.03c-4.5-2.2-7.35-3.62-12.57-3.46-5.21.16-11.2,3.35-11.41,6.53s3.29,4.61,4.55,5.27,3.28.11,4.13.03c2.3-.22,4.73-.55,6.49-.11,1.76.44,9.07,3.72,10.64,5.71,4.01,5.1,6.85,8.96,8.45,11.39s3.84,7.22,7.13,10.13c2.77,2.45,4.33,4.36,8.22,3.27,4.01-1.13,7.7-2.61,7.7-2.61"/>
    <path class="cls-3" d="M179.73,392.94s-3.07,2.63-12.84,10.98c-9.77,8.34-12.84,10.1-12.84,10.1"/>
    <path class="cls-3" d="M185,402.07c-.77.85-3.4,4.14-4.17,10.07-.77,5.93,0,12.51,0,12.51"/>
    <path class="cls-3" d="M159.31,437.39s11.2,20.53,13.07,23.05l1.86,2.51"/>
    <path class="cls-3" d="M638.83,455.67s-13.61-14.05-14.2-27.37c-.59-13.32-3.95-22.1-5.12-28.68-1.17-6.59-2.78-8.63-2.93-10.68-.15-2.05-.15-2.34.59-2.78.73-.44,7.83-.88,10.5,5.27,2.67,6.15,5.01,9.51,5.75,11.85.73,2.34,1.17,5.1,4.39,5.4,3.22.31,3.37-2.18,4.39-4.08s4.17-8.99,5.27-10.98c1.46-2.63,1.9-5.35,3.22-8.2s4.1-10.24,5.41-15.51c1.32-5.27,2.05-6.88,3.22-9.8s1.1-3.72,1.76-4.39c1.42-1.46,3.07-1.76,4.68-.44,1.61,1.32,2.63,2.05,1.76,8.2s-5.22,24.1-6.29,28.54c-.77,3.2-.15,4.24-.15,4.24,0,0,1.76.59,2.2.59s-.44,1.02,2.78-6.15c3.22-7.17,8.78-25.32,10.1-29.56s.73-4.54,2.34-5.41,3.51-.44,4.24-.29c.73.15,2.63,2.15,2.78,3.03.15.88-3.51,21.12-5.71,27.7-2.2,6.59-4.98,13.17-4.98,13.76s0,1.9,1.02,2.34c1.02.44,1.17,1.76,1.9,1.76s6.44-10.39,7.02-11.41c.59-1.02,5.56-11.53,6-11.84.44-.31,2.05-5.28,2.63-5.72.59-.44,2.93-2.05,4.54-1.76,1.61.29,2.05,1.46,2.63,2.78.59,1.32.88,6.15-1.61,10.83-2.49,4.68-10.24,19.29-11.12,21.79s-2.34,5.43-1.02,5.87,2.63,2.93,3.22,3.07c.59.15,5.27-7.17,7.02-9.66,1.76-2.49,4.39-6.29,5.85-6.29s1.9-.15,2.78-.15,2.93,1.02,1.9,5.27c-1.02,4.24-24.44,36.88-27.95,40.39-3.51,3.51-18.44,15.8-23.71,15.8s-5.56-1.32-5.56-1.32"/>
    <path class="cls-3" d="M648.78,407.82s20.05,5.56,26.34,12.73c6.29,7.17,5.12,6.44,5.12,6.44"/>
    <path class="cls-3" d="M646,416.16c.29.59,6,1.02,9.22,13.02,3.22,12,2.34,13.76,2.34,13.76"/>
    <line class="cls-3" x1="628.88" y1="441.89" x2="622.75" y2="456.46"/>
    <line class="cls-3" x1="659.34" y1="462.23" x2="651.51" y2="483.07"/>
    <path class="cls-3" d="M619.38,442.76s-1.04,1.46-.66,3.63c.93,5.22,4.79,15.04,16.63,25.53,16.04,14.21,25.28,16.34,32.22,16.14,1.23-.04,2.91-2.03,2.66-3.18"/>
    <path class="cls-3" d="M252.56,430.88c.44,1.65,8.45,12.95,12.62,17.12,4.17,4.17,12.62,12.62,12.62,12.62"/>
    <path class="cls-3" d="M253.88,462.38c.88,4.17,11.41,31.06,14.93,38.09s3.51,5.49,10.87,10.21"/>
    <path class="cls-3" d="M241.26,500.8s-1.21,17.56-5.71,27.99-14.16,25.24-14.16,25.24"/>
    <path class="cls-3" d="M153.34,505.85c.33,0,3.95,1.21,11.85,2.09s13.06,0,13.06,0"/>
    <path class="cls-3" d="M279.67,410.14c.11.44,18.88,12.62,27.88,45.88,9,33.26-1.21,54.66-1.21,54.66"/>
    <path class="cls-3" d="M489.09,399.38s-2.52,11.09-5.49,20.74c-2.96,9.66-8.56,18.66-8.56,18.66"/>
    <path class="cls-3" d="M542.87,431.1s-25.35,17.78-34.13,19.87"/>
    <path class="cls-3" d="M554.83,441.89s-18.73,13.46-36.26,16.54"/>
    <path class="cls-3" d="M571.18,499.7s-18.22,4.17-22.94,11.3c-4.72,7.13-10.43,12.18-18.55,13.5"/>
    <path class="cls-3" d="M585.01,507.2s6,9.95,6.66,19.39c.66,9.44,0,17.78,0,17.78"/>
    <path class="cls-3" d="M589.4,482.62s.33,5.88,5.8,11.98,11.18,9.68,11.18,9.68"/>
    <path class="cls-3" d="M604.17,583.44s-15.15,4.77-29.63,3.02c-14.49-1.76-33.15-9.22-33.15-9.22"/>
    <path class="cls-3" d="M502.54,474.55s6.15,3.68,7.9,3.02c0,0-2.41,3.49-5.71,5.04"/>
    <path class="cls-3" d="M482.89,703.23c2.34,2.27,10.98,9.66,17.78,29.49s14.41,36.22,16.24,40.98c1.83,4.76-1.17,37.68-13.54,52.32-12.37,14.63-18.29,23.41-44.93,19.02s-40.39-10.9-49.02-24-9.95-15.29-10.61-26.05c-.66-10.76-1.98-34.24-3.95-44.41-1.98-10.17-5.34-21.29-6.51-23.56-1.17-2.27-1.7-3.68-1.7-3.68"/>
    <path class="cls-3" d="M396.77,771.72s3.15,32.27-1.24,45.29c-4.39,13.02-13.39,33.07-33.59,35.12-20.2,2.05-67.17,11.2-78.44-4.24s-26.78-48.29-27.59-75.29c-.8-27,1.76-39.51,4.24-42.8,2.49-3.29,5.34-3.66,6.15-3.59s-.37,1.61,4.98-.73,6.15-4.46,6.88-5.05c.73-.59,2.34-1.68,2.34-1.68"/>
    <path class="cls-3" d="M282.11,678.43v2.49c0,.73-3.44,5.12-3.37,7.98.07,2.85,1.9,11.27,3.37,13.83.86,1.55,1.33,2.14,1.34,3.11s-2.21,7.14-3.75,22.14-3.51,33.8-3.29,40.39.44,8.85-1.46,12.66c-1.9,3.8-1.83,2.12-.66,7.61,1.17,5.49,2.93,12.88,2.93,12.88"/>
    <path class="cls-3" d="M270.26,732.43s-4.24,7.54-5.78,12.15c-1.54,4.61-2.05,15.22-2.05,15.22"/>
    <path class="cls-3" d="M269.53,725.4c-.01,5.99-.37-22.82,2.2-25.54,2.32-2.45,8.26-3.66,8.26-3.66"/>
    <path class="cls-3" d="M495.17,687.22s10.63-3.16,15.68,3.72c5.05,6.88,7.72,21.44,6.57,24.22l-1.15,2.78"/>
    <path class="cls-3" d="M488.09,707.48s4.46-.44,9.51.8c5.05,1.24,4.02,4.98,10.9,7.68,6.88,2.71,13.39,4.02,14.34,4.68.95.66,2.78,1.17,1.46,7.98s-7.39,33.44-7.54,35.34c-.15,1.9-.29,6.59-.29,6.59"/>
    <path class="cls-3" d="M515.02,727.01s-4.83,9.44-4.46,13.76.29,5.49.29,5.49"/>
    <path class="cls-3" d="M347.05,382.84s2.96,1.7,0,.27c-2.96-1.43-2.41-2.14-5.43.93-3.02,3.07-16.46,10.21-8.29,23.32,8.18,13.12,24.59,36.44,60.59,37.48,36,1.04,67.55-40.39,68.27-41.16s2.41-10.65,1.26-14.16c-1.15-3.51-4.66-7.02-6.42-7.02"/>
    <path class="cls-3" d="M415.34,397.22c2.8-4.12,1.04-4.77,7.24-5.32,6.2-.55,17.23-1.26,17.23-1.26"/>
    <path class="cls-3" d="M388.94,397.82c-4.55-4.28-4.17-5.65-9.82-5.98-5.65-.33-16.41-1.8-16.57-1.75"/>
  </g>
</svg>