<?xml version="1.0" encoding="UTF-8"?>
<svg id="_レイヤー_1" data-name="レイヤー 1" xmlns="http://www.w3.org/2000/svg" viewBox="0 0 432.16 800.36">
  <defs>
    <style>
      .cls-1 {
        fill: #fff;
        stroke: #231815;
        stroke-miterlimit: 10;
        stroke-width: 20px;
      }
    </style>
  </defs>
  <path class="cls-1" d="M83.69,188.26c2.92-8.98,6.18-17.85,9.85-26.55l-3.78,8.96c7.48-17.6,16.66-34.53,28.36-49.7l-5.86,7.59c7.62-9.78,16.24-18.71,26.03-26.34l-7.59,5.86c8.31-6.39,17.31-11.71,26.94-15.84l-8.96,3.78c12.55-5.27,25.79-8.48,39.25-10.33l-9.97,1.34c20.67-2.75,41.8-2.78,62.47-.06l-9.97-1.34c16.12,2.19,31.95,6.18,46.98,12.43l-8.96-3.78c11.98,5.06,23.27,11.52,33.57,19.45l-7.59-5.86c10.17,7.92,19.25,17.11,27.17,27.28l-5.86-7.59c9.07,11.75,16.53,24.64,22.33,38.3l-3.78-8.96c6.13,14.62,10.31,29.95,12.46,45.66l-1.34-9.97c2.36,17.84,2.19,35.87-.15,53.7l1.34-9.97c-2.84,20.98-8.63,41.45-16.81,60.96l3.78-8.96c-15.5,36.57-40.61,67.87-57.55,103.7-9.13,19.32-17.16,39.37-22.52,60.09-2.3,8.92-4.1,17.96-5.35,27.08-1.64,11.94-3.13,23.79-3.17,35.85-.05,13.24,1.5,26.47,3.74,39.51,1.73,10.11,4.47,20.02,8.17,29.59,1.16,4.88,3.4,9.13,6.71,12.75,2.64,4.08,6.15,7.3,10.52,9.66,4.3,2.74,8.95,4.22,13.94,4.45,4.98,1.12,9.97.89,14.95-.67,9.07-2.94,17.83-8.56,22.41-17.23s7.35-19.63,3.78-28.9c-4.43-11.49-7.43-23.43-9.08-35.62l1.34,9.97c-2.12-16.26-1.84-32.7.29-48.94l-1.34,9.97c3.09-22.85,9.71-45.06,18.63-66.29l-3.78,8.96c10.06-23.77,23.45-45.53,36.97-67.44,15.33-24.85,28.74-50.68,37.66-78.59,3.88-12.13,6.81-24.58,8.65-37.18,2.29-15.63,4-31.19,3.49-47-.49-15.07-2.43-30.3-5.75-45-3.12-13.81-8.17-26.78-13.76-39.76-4.37-10.16-9.64-19.92-15.86-29.08-7.78-11.47-16.53-22.57-26.47-32.27-21.15-20.63-46.68-35.29-74.63-44.6-14.72-4.9-29.82-7.36-45.17-9.35-12.31-1.6-24.72-2.22-37.13-1.91-31.82.81-63.38,6.57-91.82,21.31-12.14,6.29-23.33,14.76-33.48,23.85s-18.86,19.98-27.05,31.06c-14.94,20.21-25.44,43.38-34.26,66.79-1.9,5.03-3.66,10.12-5.33,15.23-1.56,4.98-1.79,9.97-.67,14.95.23,4.99,1.71,9.64,4.45,13.94,2.36,4.37,5.58,7.88,9.66,10.52,3.62,3.31,7.87,5.55,12.75,6.71,9.6,2.19,20.37,1.71,28.9-3.78s14.1-12.79,17.23-22.41h0Z"/>
  <circle class="cls-1" cx="348.07" cy="752.97" r="37.39"/>
</svg>