<?xml version="1.0" encoding="UTF-8"?>
<svg xmlns="http://www.w3.org/2000/svg" xmlns:xlink="http://www.w3.org/1999/xlink" viewBox="0 0 3839.14 3839.14">
  <defs>
    <style>
      .cls-1 {
        stroke: #231815;
      }

      .cls-1, .cls-2, .cls-3, .cls-4, .cls-5, .cls-6, .cls-7, .cls-8, .cls-9, .cls-10, .cls-11, .cls-12, .cls-13, .cls-14, .cls-15 {
        stroke-width: 10px;
      }

      .cls-1, .cls-4, .cls-5, .cls-6, .cls-7, .cls-16, .cls-11, .cls-12, .cls-13, .cls-14, .cls-15 {
        stroke-linecap: round;
      }

      .cls-1, .cls-5, .cls-6, .cls-7, .cls-11, .cls-12, .cls-13, .cls-14 {
        stroke-linejoin: round;
      }

      .cls-1, .cls-7, .cls-17, .cls-9 {
        fill: #94ceed;
      }

      .cls-18 {
        fill: url(#_名称未設定グラデーション_15);
      }

      .cls-18, .cls-19, .cls-20, .cls-21, .cls-22, .cls-17, .cls-23 {
        stroke-width: 0px;
      }

      .cls-2, .cls-3, .cls-4, .cls-5, .cls-7, .cls-8, .cls-9, .cls-16, .cls-10, .cls-11, .cls-12, .cls-13, .cls-14, .cls-15 {
        stroke: #000;
      }

      .cls-2, .cls-3, .cls-4, .cls-8, .cls-9, .cls-16, .cls-10, .cls-15 {
        stroke-miterlimit: 10;
      }

      .cls-2, .cls-12 {
        fill: #000;
      }

      .cls-19 {
        fill: #b3164e;
      }

      .cls-3, .cls-4, .cls-6, .cls-14 {
        fill: #fff;
      }

      .cls-20, .cls-11 {
        fill: #b1d795;
      }

      .cls-21 {
        fill: #ef8fb8;
      }

      .cls-5, .cls-10 {
        fill: #faddbd;
      }

      .cls-6 {
        stroke: #0c0414;
      }

      .cls-8 {
        fill: #c69fc8;
      }

      .cls-22 {
        fill: url(#_名称未設定グラデーション_14);
      }

      .cls-16 {
        stroke-width: 11px;
      }

      .cls-16, .cls-13, .cls-15 {
        fill: none;
      }

      .cls-23 {
        fill: url(#_名称未設定グラデーション_14-2);
      }
    </style>
    <radialGradient id="_名称未設定グラデーション_15" data-name="名称未設定グラデーション 15" cx="1512.14" cy="1502.69" fx="1512.14" fy="1502.69" r="194.61" gradientTransform="translate(-2614.12 -109.03) scale(2.89 1.02)" gradientUnits="userSpaceOnUse">
      <stop offset="0" stop-color="#fac4bd"/>
      <stop offset=".18" stop-color="rgba(250, 196, 189, .99)" stop-opacity=".99"/>
      <stop offset=".31" stop-color="rgba(250, 197, 189, .95)" stop-opacity=".95"/>
      <stop offset=".43" stop-color="rgba(250, 198, 189, .88)" stop-opacity=".88"/>
      <stop offset=".54" stop-color="rgba(250, 201, 189, .79)" stop-opacity=".79"/>
      <stop offset=".64" stop-color="rgba(250, 204, 189, .67)" stop-opacity=".67"/>
      <stop offset=".74" stop-color="rgba(250, 207, 189, .53)" stop-opacity=".53"/>
      <stop offset=".84" stop-color="rgba(250, 212, 189, .35)" stop-opacity=".35"/>
      <stop offset=".93" stop-color="rgba(250, 217, 189, .16)" stop-opacity=".16"/>
      <stop offset="1" stop-color="#faddbd" stop-opacity="0"/>
    </radialGradient>
    <radialGradient id="_名称未設定グラデーション_14" data-name="名称未設定グラデーション 14" cx="598.31" cy="1208.06" fx="598.31" fy="1208.06" r="194.61" gradientTransform="translate(1603.8 1097.45) scale(.72 .34)" gradientUnits="userSpaceOnUse">
      <stop offset="0" stop-color="#fac4bd"/>
      <stop offset="1" stop-color="#faddbd" stop-opacity="0"/>
    </radialGradient>
    <radialGradient id="_名称未設定グラデーション_14-2" data-name="名称未設定グラデーション 14" cx="-328.72" cy="1224.67" fx="-328.72" fy="1224.67" r="194.61" gradientTransform="translate(1603.8 1104.61) scale(.72 .34)" xlink:href="#_名称未設定グラデーション_14"/>
  </defs>
  <g id="_レイヤー_8" data-name="レイヤー 8">
    <path class="cls-1" d="M2513.41,1555.35c21.07,24.51,163.01,189.95,313.96,240.35,80.34,26.82,310.06-25.61,438.59-150.75,91.98-89.56,182.08-238.57,202.83-319.44,0,0-20.17,215.87-176.49,339.48-62.34,49.29-140.93,109.64-206.78,122.81-63.79,12.76-140.58,15.43-172.54,19.34-184.39,22.61-333.09-134.68-399.57-179.87-66.46-45.18,0-71.92,0-71.92Z"/>
    <path class="cls-1" d="M1141.26,1583.46s-40.39,324-130.83,541.76-163.32,337.17-308.2,514.54c-144.88,177.37-290.63,374.05-396,434.63-93.07,54.44-86.05,48.29-86.05,48.29,0,0,147.51-27.22,235.32-100.98s276.59-269.56,424.98-564.59c148.39-295.02,220.39-452.2,309.07-658.54,88.68-206.34-38.9-215.12-38.9-215.12"/>
  </g>
  <g id="_レイヤー_3" data-name="レイヤー 3">
    <path class="cls-9" d="M495.78,3181.41s379.76-222.59,494.34-588.73,100-1109.03,103.63-1332.98c1.1-67.83-3.29-233.78,1.19-285.77,24.67-286.2,114.59-572.93,545.27-590.05s817.9,89.56,852.15,628.24,32.93,590.05,52.68,708.59,91.76,1012.83,165.51,1190.2c73.76,177.37,144,259.9,277.46,205.46,133.46-54.44,0,42.15,0,42.15,0,0,49.17,5.27,80.78,50.93,31.61,45.66,42.15,72,0,70.24-42.15-1.76-57.95-1.76-63.22,14.05s-43.9,17.56-56.2-8.78c-12.29-26.34-24.59,3.73-26.34,20.31s-5.27,55.21-31.61,21.84c-26.34-33.37-22.83,7-24.59,13.16s-35.12,2.64-56.2-25.45,10.54,79.02,3.51,82.54-12.29,70.24-33.37,19.32-91.32-268.68-91.32-268.68c0,0,38.63,122.93,38.63,149.27s-26.34-1.76-38.63-24.59,5.27-5.27-8.78,14.05-12.29,47.41-22.83,7.02-24.59-61.46-29.85-28.1c-5.27,33.37-24.59,61.46-29.85,35.12-5.27-26.34-22.83-24.59-22.83-5.27s-22.83,56.2-36.88,10.54c-14.05-45.66-29.85-52.68-33.37-31.61-3.51,21.07-7.02-31.61-7.02-31.61l-739.32,64.98-240.59-107.12-135.22-79.02-15.8,49.17-68.49-17.56s-3.51,29.85-35.12,35.12-35.12-17.56-50.93-47.41c-15.8-29.85-24.59,19.32-43.9,29.85-19.32,10.54-15.8-103.61-33.37-103.61s-22.83,122.93-52.68,126.44-70.24-108.88-93.07-112.39-47.41,200.2-61.46,186.15,84.29-470.63,100.1-505.76c15.8-35.12-89.56,389.85-184.39,447.8s-114.15,5.27-133.46-72,29.85,43.9-94.83,28.1-39.84,15.88-39.84,15.88c0,0,36.33-10.61-33.91-3.59s-45.99,3.59-45.99,3.59Z"/>
  </g>
  <g id="_レイヤー_16" data-name="レイヤー 16">
    <path class="cls-3" d="M2237.17,3107.72s33.95-10.24,72.59,9.95,138.73,21.66,155.12,18.15,37.46,4.1,40.1,26.05,15.51,64.68-47.41,106.24-184.1,95.12-206.93,106.54-58.54,44.2-58.54,44.2l-66.15-169.17,111.22-141.95Z"/>
  </g>
  <g id="_レイヤー_15" data-name="レイヤー 15">
    <path class="cls-20" d="M1492.81,2894.5l-19.76,75.95,21.07,26.2s61.61-42,61.76-43.17,20.49-77.71,20.49-77.71h-71.71l-11.85,18.73Z"/>
    <path class="cls-8" d="M1548.49,2919.82s-227.85,183.55-245.63,203.07-60.59,57.71-77.71,120.93-45.44,229.83,13.17,264.07,192.29,109.32,287.78,31.61,102.73-76.39,102.73-76.39l242.34-301.61,56.63-181.1-191.2-113.93-152.56-9.22-35.56,62.56Z"/>
    <path class="cls-8" d="M1750,3039.01s2.63,11.85-9.88,35.56c-12.51,23.71-100.76,188.34-115.24,253.54-14.49,65.2-38.85,187.68,0,227.85,38.85,40.17,119.85,122.49,244.32,115.24,124.46-7.24,237.73-135.66,237.73-135.66,0,0,90.88-92.85,101.41-111.95s55.01-133.7,23.71-168.59c-23.05-25.68-32.93-21.73-32.93-21.73,0,0,65.2-140.27,83.63-237.07,18.44-96.8-524.85-91.54-524.85-91.54"/>
  </g>
  <g id="_レイヤー_13" data-name="レイヤー 13">
    <path class="cls-11" d="M1803.34,1908.09s-99.44-1.32-174.51-20.41-84.29-23.71-137.63-3.29-94.83,27.66-105.37,30.95c-10.54,3.29-72.44,5.93-89.56,132.37-17.12,126.44-36.88,682.24-42.15,717.8-5.27,35.56,0,81,75.73,98.12s150-23.27,152.12-34.24c.67-3.48,1.32-7.93,1.96-13.25,13.6-114.51,18.06-634.22,23.73-651.21,0,0-5.27,611.12-10.54,628.9-5.27,17.78-36.88,84.29-38.85,125.78-1.98,41.49,15.51,56.71,15.51,56.71,0,0-3.66-63.29,62.85-78.44,66.51-15.15,111.29-48.73,217.32,23.05,106.02,71.78,73.1,80.34,198.88,82.32,125.78,1.98,208.1-19.76,208.1-19.76,0,0-13.17-761.27-24.37-803.41l-7.9-15.8s9.88,4.61,12.51,14.49c2.63,9.88,21.07,759.95,23.71,776.41,2.63,16.46-3.29,34.24,33.59,42.15,36.88,7.9,174.51-23.71,189.66-32.27,15.15-8.56,30.95-3.29,28.98-31.61-1.98-28.32,10.13-788.93-31.81-870.59-41.94-81.66-80.14-171.88-144.67-178.46s-82.32-11.2-108-23.05c-25.68-11.85-27.66-37.76-65.2-28.43s-192.29,60.91-206.78,67.72c-14.49,6.8-57.29,7.46-57.29,7.46Z"/>
  </g>
  <g id="_レイヤー_12" data-name="レイヤー 12">
    <path class="cls-5" d="M1624.44,1807.14s-5.93,77.02-36.88,93.48-86.93,21.73-86.93,21.73l14.49,174.51,640.1,7.24-9.22-213.37s-102.07-14.62-117.22-19.5-51.37-82.58-56.63-106.94-7.9-67.17-7.9-67.17l-331.9,34.9-7.9,75.1Z"/>
  </g>
  <g id="_レイヤー_14" data-name="レイヤー 14">
    <path class="cls-20" d="M1511.4,1905.85l32.57,5.83,76.42,82.03,57.43,38.13,67.94,19.08,106.36-5.74,67.02-20.72,61.05-38.74,67.51-73.15,32.14-44.9,94.47,23.3,5.12,237.31-642.58,18.86-94.83-67.17s23.05-151.46,25.68-153.44,43.69-20.68,43.69-20.68Z"/>
    <path class="cls-13" d="M1536.86,1904.13s14.31,33.05,106.83,109.24c34.22,28.18,145.26,57.02,254.85,19.76,92.07-31.3,186.22-168.51,186.22-168.51"/>
  </g>
  <g id="_レイヤー_2" data-name="レイヤー 2">
    <path class="cls-10" d="M1149.87,1195.66s52.68,270.44,80.34,367.02,127.17,220.8,415.98,242.34,529.41-121.38,576.22-150.8c356.27-223.9,17.01-671.41,17.01-671.41l-503.01-89.2-266.16-.33-342.33,145.21,21.95,157.17Z"/>
    <ellipse class="cls-18" cx="1756.61" cy="1426.59" rx="566.99" ry="197.57"/>
    <ellipse class="cls-22" cx="2037.31" cy="1511.13" rx="142.13" ry="66.2"/>
    <ellipse class="cls-23" cx="1365.62" cy="1523.97" rx="142.13" ry="66.2"/>
  </g>
  <g id="_レイヤー_6" data-name="レイヤー 6">
    <path class="cls-17" d="M2250.23,915.39s-72.62,16.61-34.65,63.18c68.19,83.64,67.22,229.51,73.58,270.06,6.21,39.55,37.26,319.41,43.61,394.99,11.71,139.41,137.54-444.1,56.03-575.06-37.81-60.74-138.57-153.17-138.57-153.17Z"/>
    <path class="cls-13" d="M2657.26,3281.66c-40.52-51.98-83.63-291.73-83.63-291.73,0,0-73.76-568.98-126.44-695.41-52.68-126.44-79.02-375.37-79.02-375.37,0,0-78.64-678.65-88.3-742.85s-24.6-156.64-68.17-201.41"/>
  </g>
  <g id="_レイヤー_9" data-name="レイヤー 9">
    <path class="cls-1" d="M2382.8,1285.25c3.58,63.53,216.28,877.71,375.8,1115.36,207.48,309.09,326.87,406.75,593.56,317.85l59.71-24.59s-182.29,41.87-422.71-176.41c-217.8-197.76-572.88-962.25-578.27-1232.21,0,0-10.9,10.74-28.1,0Z"/>
  </g>
  <g id="_レイヤー_4" data-name="レイヤー 4">
    <path class="cls-7" d="M1137.76,893.27s22.83,312.04,29.85,306.77,26.34-122.93,33.37-117.66-3.51,114.15,12.29,126.44,84.85,12.01,95.63,10.28c11.53-1.85,46.07-91.87,48.54-88.59,7.5,9.93-2.39,100.93,6.85,87.45,9.7-14.15,25.81-93.39,54.15-186.26,7.57-24.81,22.26-105.13,27.76-155.24,0,0-37.65,300.49-20.09,321.57s25.98-27.84,25.98-27.84c-3.77,20.3-4.31,31.53-1.83,32.67,5.47,2.5,16.39-2.78,28.54-9.22,18.16-9.63-2.63,12.29,20.71,15.18,22.04,2.73,59.09,3.04,73.24,2.82s16.32-22.13,16.32-22.13c8.78,10.54,1.68,23.45,16.91,22.44,18.95-1.26,10.92-19.56,16.38-20.5s2.74,20.16,10.65,23.34,14.6,2.2,23.27-1.54,14.95-24.39,35.89-121.46c8.54-39.61,11.8-137.42,14.56-195.55,0,0-22.07,326.93-7.02,334.51,6.29,3.17,7.47-16.85,16.68-20.39,2.85-1.1-2.49,19.86,4.83,19.76,15.84-.22,32.71-1.68,49.17-1.1,18.9.67,32.44-.33,46.98-2.63,7.39-1.17,8.43-27.59,14.12-27.07,2.41.22,10.46,41.12,21,25.32s-3.51-105.37,19.32-73.76,18.51,72.93,22.83,75.51c4.06,2.42,41.67,2.91,59.78,2.25,7.46-.27-2.52-318.36,8.71-332.4,0,0,12.29,296.78,26.34,309.07s26.34,3.51,35.12-5.27,12.29,1.76,24.59,12.29,24.59,1.76,31.61-14.05,24.59-7.02,28.1,5.27,14.05,28.1,21.07,3.51,1.76-19.32,17.56-3.51,15.8,1.76,21.07-19.32c3.51-14.04-14.81-140.36-35.74-234.01-10.48-46.89-27.3-100.92-27.3-100.92"/>
  </g>
  <g id="_レイヤー_5" data-name="レイヤー 5">
    <path class="cls-7" d="M2112.87,880.13c47.41,101.85,104.89,415.12,41.67,991.12,0,0,42.32-52.04,54.48-112.63s31.57-695.18-7.06-839.18"/>
    <path class="cls-7" d="M1181.92,893.27c-36.16,152.83-21.77,858.69-9.02,939.63-58.15-65.66-90.95-848.6-66.99-953.96"/>
  </g>
  <g id="_レイヤー_7" data-name="レイヤー 7">
    <path class="cls-12" d="M1227.99,1315.44c4.11-5.09,10.06-8.34,16.5-9.49,33.98-6.05,189.08-29.08,240.57,44.24,0,0,14.09,23.36,1.56,33.37s-106.14,6.67-217.18,54.13c-5.6,2.4-12.18.45-15.41-4.72-2.25-3.61-4.42-8.1-5.27-12.96-1.37-7.81,2.74-15.56,9.88-19.02,21.36-10.35,88.95-39.65,182.49-46.85,0,0-70.22-18-203.68-5.71,0,0-23.04-16.18-9.46-33Z"/>
    <path class="cls-14" d="M1244.92,1435.14c15.53,5.49,20.23,6.11,56.16,6.99,7.7.19,17.94,3.07,19.96,4.9,6.91,6.3,16.68,19.22-9.16,33.4-35.12,19.27-68.19,9.74-90.44,2.63-8.51-2.72-27.22-15.59-16.79-32.49,9.71-15.75,23.59-17.48,35.53-16.47,1.62.14,3.21.49,4.75,1.03Z"/>
    <path class="cls-2" d="M1851.11,1335.89c-4.25,9.02-4.68,36.44,2.78,43.9s84.81,8.5,140.3,21.02c77.66,17.51,123.21,34.06,132.37,36,31.37,6.65,20.62-29.15,4.61-37.54-8.24-4.32-18.4-20.95-90.99-32.07s-120-20.2-129.95-21.66c0,0,43.9-4.98,122.05-4.68s88.21,3.6,102.84,6.82,14.32-24.27,10.86-30.36c-7.57-13.32-26.78-17.44-63.36-23.29s-96.59-6.15-145.46,3.8-81.95,28.98-83.41,32.78-.08-.16-2.63,5.27Z"/>
    <path class="cls-15" d="M1910.22,1272.85c-21.82-.62-44.77,14.28-56.79,25.74"/>
    <path class="cls-15" d="M1428.42,1276.85c-41.15-5.54-64.56-6.44-125.6-8.04"/>
    <path class="cls-15" d="M2114.85,1151.21c-2.94-1.27-59.62,2.46-104.49-2.48-52.63-5.79-101.25-11.54-166.23-72.16"/>
    <path class="cls-15" d="M1436.06,1076.57c-38.54,23.27-89.91,56.69-140.84,68.73-50.93,12.05-49.61,1.95-49.61,1.95"/>
    <path class="cls-6" d="M1640.81,1420.78c6.04,1.22,10.29,3.32,15.59,6.8"/>
    <path class="cls-4" d="M2072.85,1453.49c5.96-11.13,42.31-11.57,65.85-10.54,24.55,1.07,52.97,16.26,41.12,38.27-7.2,13.36-33.8,13.83-42.88,13.54s-57.66-2.05-64.1-16.68-4.39-16.39,0-24.59Z"/>
    <path class="cls-6" d="M2037.31,1508.83s27.66,8.56,42.8,25.68"/>
    <path class="cls-6" d="M1986.85,1508.83s27.66,8.56,42.8,25.68"/>
    <path class="cls-6" d="M1374.49,1508.83s27.66,8.56,42.8,25.68"/>
    <path class="cls-6" d="M1307.34,1511.13s27.66,8.56,42.8,25.68"/>
  </g>
  <g id="_レイヤー_11" data-name="レイヤー 11">
    <path class="cls-19" d="M1580.8,1590.78s5.21-24.1,33.7-30.12c28.49-6.02,111.18-12.11,111.18-12.11,0,0,24.51,4.73,24.92,4.93.42.2,17.07,13.3,17.07,13.3l17.48,38.34-2.56,35.27-14.9,23.44-19.55,15.64s-51.31,5.11-51.89,5.11-48.88-6.59-48.88-6.59l-29.41-6.88-27.95-25.61-9.22-33.37v-21.37Z"/>
    <path class="cls-21" d="M1583.55,1636.83s56.28-19.55,97.77-28.26,92.28-8.67,104.57,2.63l-6.8,36.31s-26.23,28.86-27.22,28.97-44.45,10.87-44.45,10.87l-61.68-8.12-50.71-18.88-11.47-23.53Z"/>
    <path class="cls-16" d="M1578.26,1619.17c-2.1-17.95-3.62-54.84,47.99-60.56,82.86-9.19,118.78-20.19,139.61,7.46,26.17,34.75,27.22,74.63-6.15,106.24-19.71,18.67-73.4,14.36-120.21,7.04-41.77-6.53-59.15-42.24-61.24-60.19Z"/>
  </g>
  <g id="_レイヤー_17" data-name="レイヤー 17">
    <ellipse class="cls-3" cx="2834.39" cy="1201.26" rx="35.56" ry="39.95"/>
    <ellipse class="cls-3" cx="3211.62" cy="2141.1" rx="28.65" ry="36.99"/>
    <ellipse class="cls-3" cx="2437.61" cy="1680.89" rx="20.32" ry="25.68"/>
    <ellipse class="cls-3" cx="789.42" cy="1640.72" rx="27.66" ry="34.24"/>
    <circle class="cls-3" cx="459.49" cy="1808.21" r="29.63"/>
    <circle class="cls-3" cx="512.28" cy="1108.07" r="31.5"/>
  </g>
</svg>